<svg xmlns="http://www.w3.org/2000/svg" xmlns:xlink="http://www.w3.org/1999/xlink" version="1.1" id="Layer_1" x="0px" y="0px" viewBox="0 0 810.07 55.03" style="enable-background:new 0 0 810.07 55.03;" xml:space="preserve" width="810.07"  height="55.03" >
<style type="text/css">
	.st0{fill:#E6282B;}
	.st1{fill:#010202;}
</style>
<g>
	<rect x="17.89" y="24.77" class="st0" width="771.31" height="3.6"/>
	<path class="st1" d="M164.82,12.27C164.82,4.47,160.54,0,153.1,0c-7.46,0-11.75,4.47-11.75,12.27v30.5   c0,7.79,4.28,12.26,11.75,12.26c7.44,0,11.73-4.47,11.73-12.26V12.27z M157.6,42.77c0,3.49-1.4,5.05-4.51,5.05   c-3.13,0-4.52-1.56-4.52-5.05v-30.5c0-3.5,1.38-5.05,4.52-5.05c3.11,0,4.51,1.55,4.51,5.05V42.77z"/>
	<path class="st1" d="M739.9,3.61c0-2.12-1.48-3.61-3.59-3.61c-2.16,0-3.62,1.46-3.62,3.61v47.8c0,2.13,1.47,3.62,3.62,3.62   c2.11,0,3.59-1.49,3.59-3.62V3.61z"/>
	<path class="st1" d="M368.91,47.46h-3.64V3.61c0-2.12-1.48-3.61-3.61-3.61c-2.11,0-3.59,1.49-3.59,3.61v43.86h-3.65   c-2.13,0-3.6,1.48-3.6,3.61c0,2.12,1.47,3.59,3.6,3.59h14.49c2.13,0,3.61-1.47,3.61-3.59C372.53,48.95,371.04,47.46,368.91,47.46z"/>
	<path class="st1" d="M682.16,47.46h-3.65V3.61c0-2.12-1.47-3.61-3.6-3.61c-2.12,0-3.6,1.49-3.6,3.61v43.86h-3.65   c-2.12,0-3.61,1.48-3.61,3.61c0,2.12,1.48,3.59,3.61,3.59h14.5c2.13,0,3.61-1.47,3.61-3.59C685.77,48.95,684.29,47.46,682.16,47.46   z"/>
	<path class="st1" d="M305.3,3.61c0-2.12-1.48-3.61-3.59-3.61c-2.14,0-3.61,1.49-3.61,3.61v19.32h-7.31V3.61   c0-2.12-1.48-3.61-3.6-3.61c-2.12,0-3.6,1.49-3.6,3.61v47.8c0,2.13,1.48,3.62,3.6,3.62c2.12,0,3.6-1.49,3.6-3.62V30.13h7.31v21.28   c0,2.13,1.47,3.62,3.61,3.62c2.11,0,3.59-1.49,3.59-3.62V3.61z"/>
	<path class="st1" d="M93.81,14.88C93.81,4.73,90.51,0,83.41,0h-0.87C75.41,0,72.1,4.73,72.1,14.87v36.54c0,2.13,1.48,3.62,3.6,3.62   c1.05,0,1.98-0.38,2.63-1.04c0.65-0.65,0.98-1.54,0.97-2.58l0.03-39.3c0-3.11,1.27-4.89,3.5-4.89h0.23c2.23,0,3.5,1.79,3.5,4.89   l0.02,39.3c0,2.13,1.5,3.62,3.6,3.62c2.13,0,3.6-1.49,3.6-3.62V14.88z"/>
	<path class="st1" d="M809.98,4.32c0.21-1.07,0.03-2.04-0.53-2.81c-0.5-0.72-1.34-1.23-2.32-1.42c-0.27-0.05-0.55-0.08-0.8-0.08   c-1.76,0-3.07,1.12-3.44,2.92l-1.52,7.69H791.2l-1.52-7.69c-0.36-1.8-1.66-2.92-3.41-2.92c-0.28,0-0.55,0.03-0.83,0.08   c-0.98,0.2-1.81,0.7-2.32,1.42c-0.55,0.77-0.73,1.74-0.51,2.81l9.35,47.14c0.5,2.13,2.25,3.57,4.34,3.57   c2.11,0,3.86-1.44,4.34-3.57C800.64,51.44,801.11,49.09,809.98,4.32z M800.43,18.06l-4.14,25.24l-4.17-25.47h8.35L800.43,18.06z"/>
	<path class="st1" d="M24.57,3.61c0-2.12-1.49-3.61-3.62-3.61c-2.12,0-3.59,1.49-3.59,3.61v20.67h-7.02   c-6.76,0-10.14,3.33-10.33,10.15L0,34.62v9.59c0,4.78,1.8,10.45,10.34,10.45h10.61c2.13,0,3.62-1.47,3.62-3.59V3.61z M17.36,47.47   h-6.78c-2.18,0-3.37-1.2-3.37-3.38v-9.26c0-2.16,1.19-3.35,3.37-3.35h6.78V47.47z"/>
	<path class="st1" d="M621.44,12.27c0-7.79-4.3-12.27-11.74-12.27c-7.45,0-11.74,4.47-11.74,12.27v30.5   c0,7.79,4.29,12.26,11.74,12.26c7.44,0,11.74-4.47,11.74-12.26V12.27z M614.23,42.77c0,3.49-1.39,5.05-4.52,5.05   c-3.13,0-4.53-1.56-4.53-5.05v-30.5c0-3.5,1.4-5.05,4.53-5.05c3.12,0,4.52,1.55,4.52,5.05V42.77z"/>
	<path class="st1" d="M551.05,3.61c0-2.12-1.48-3.6-3.6-3.6c-2.13,0-3.6,1.48-3.6,3.6V22.4l-9.67-20.29   C533.53,0.76,532.4,0,531.06,0c-0.57,0-1.14,0.13-1.68,0.4c-1.92,0.92-2.62,2.9-1.69,4.81l9.35,19.63h-2.56   c-1.09,0-2.12,0.04-3.01,0.45c-3.21,1.46-4.84,4.45-4.96,9.15v0.11l-0.01,9.68c0,4.78,1.79,10.45,10.33,10.45h10.63   c2.12,0,3.6-1.47,3.6-3.59V3.61z M543.84,47.47h-6.78c-2.18,0-3.36-1.2-3.36-3.38v-9.26c0-2.16,1.18-3.35,3.36-3.35h6.78V47.47z"/>
	<path class="st1" d="M235.18,3.61c0-2.12-1.48-3.6-3.61-3.6c-2.11,0-3.6,1.48-3.6,3.6V22.4L218.3,2.11   C217.68,0.76,216.53,0,215.18,0c-0.54,0-1.13,0.13-1.67,0.4c-1.92,0.92-2.62,2.9-1.71,4.81l9.36,19.63h-2.55   c-1.08,0-2.13,0.04-3.03,0.45c-3.2,1.46-4.82,4.45-4.95,9.15l-0.01,0.19v9.59c0,4.78,1.8,10.45,10.34,10.45h10.61   c2.13,0,3.61-1.47,3.61-3.59V3.61z M227.97,47.47h-6.77c-2.16,0-3.37-1.2-3.37-3.38v-9.26c0-2.16,1.2-3.35,3.37-3.35h6.77V47.47z"/>
</g>
</svg>