<?xml version="1.0" encoding="UTF-8"?><svg id="Layer_1" xmlns="http://www.w3.org/2000/svg" width="810.06" height="55.03" viewBox="0 0 810.06 55.03"><defs><style>.cls-1{fill:#fff;}</style></defs><rect class="cls-1" x="17.89" y="24.77" width="771.31" height="3.6"/><path class="cls-1" d="M164.82,12.27c0-7.8-4.28-12.27-11.72-12.27s-11.75,4.47-11.75,12.27v30.5c0,7.79,4.28,12.26,11.75,12.26s11.73-4.47,11.73-12.26V12.27h0Zm-7.22,30.5c0,3.49-1.4,5.05-4.51,5.05s-4.52-1.56-4.52-5.05V12.27c0-3.5,1.38-5.05,4.52-5.05s4.51,1.55,4.51,5.05v30.5Z"/><path class="cls-1" d="M739.9,3.61c0-2.12-1.48-3.61-3.59-3.61s-3.62,1.46-3.62,3.61V51.41c0,2.13,1.47,3.62,3.62,3.62s3.59-1.49,3.59-3.62V3.61Z"/><path class="cls-1" d="M368.91,47.46h-3.64V3.61c0-2.12-1.48-3.61-3.61-3.61s-3.59,1.49-3.59,3.61V47.47h-3.65c-2.13,0-3.6,1.48-3.6,3.61s1.47,3.59,3.6,3.59h14.49c2.13,0,3.61-1.47,3.61-3.59,.01-2.13-1.48-3.62-3.61-3.62Z"/><path class="cls-1" d="M682.16,47.46h-3.65V3.61c0-2.12-1.47-3.61-3.6-3.61s-3.6,1.49-3.6,3.61V47.47h-3.65c-2.12,0-3.61,1.48-3.61,3.61s1.48,3.59,3.61,3.59h14.5c2.13,0,3.61-1.47,3.61-3.59,0-2.13-1.48-3.62-3.61-3.62Z"/><path class="cls-1" d="M305.3,3.61c0-2.12-1.48-3.61-3.59-3.61s-3.61,1.49-3.61,3.61V22.93h-7.31V3.61c0-2.12-1.48-3.61-3.6-3.61s-3.6,1.49-3.6,3.61V51.41c0,2.13,1.48,3.62,3.6,3.62s3.6-1.49,3.6-3.62V30.13h7.31v21.28c0,2.13,1.47,3.62,3.61,3.62s3.59-1.49,3.59-3.62V3.61Z"/><path class="cls-1" d="M93.81,14.88c0-10.15-3.3-14.88-10.4-14.88h-.87c-7.13,0-10.44,4.73-10.44,14.87V51.41c0,2.13,1.48,3.62,3.6,3.62,1.05,0,1.98-.38,2.63-1.04,.65-.65,.98-1.54,.97-2.58l.03-39.3c0-3.11,1.27-4.89,3.5-4.89h.23c2.23,0,3.5,1.79,3.5,4.89l.02,39.3c0,2.13,1.5,3.62,3.6,3.62s3.6-1.49,3.6-3.62V14.88h.03Z"/><path class="cls-1" d="M809.98,4.32c.21-1.07,.03-2.04-.53-2.81-.5-.72-1.34-1.23-2.32-1.42-.27-.05-.55-.08-.8-.08-1.76,0-3.07,1.12-3.44,2.92l-1.52,7.69h-10.17l-1.52-7.69c-.36-1.8-1.66-2.92-3.41-2.92-.28,0-.55,.03-.83,.08-.98,.2-1.81,.7-2.32,1.42-.55,.77-.73,1.74-.51,2.81l9.35,47.14c.5,2.13,2.25,3.57,4.34,3.57s3.86-1.44,4.34-3.57c0-.02,.47-2.37,9.34-47.14Zm-9.55,13.74l-4.14,25.24-4.17-25.47h8.35l-.04,.23Z"/><path class="cls-1" d="M24.57,3.61c0-2.12-1.49-3.61-3.62-3.61s-3.59,1.49-3.59,3.61V24.28h-7.02C3.58,24.28,.2,27.61,.01,34.43v.19s-.01,9.59-.01,9.59c0,4.78,1.8,10.45,10.34,10.45h10.61c2.13,0,3.62-1.47,3.62-3.59V3.61Zm-7.21,43.86h-6.78c-2.18,0-3.37-1.2-3.37-3.38v-9.26c0-2.16,1.19-3.35,3.37-3.35h6.78v15.99Z"/><path class="cls-1" d="M621.44,12.27c0-7.79-4.3-12.27-11.74-12.27s-11.74,4.47-11.74,12.27v30.5c0,7.79,4.29,12.26,11.74,12.26s11.74-4.47,11.74-12.26V12.27Zm-7.21,30.5c0,3.49-1.39,5.05-4.52,5.05s-4.53-1.56-4.53-5.05V12.27c0-3.5,1.4-5.05,4.53-5.05s4.52,1.55,4.52,5.05v30.5Z"/><path class="cls-1" d="M551.05,3.61c0-2.12-1.48-3.6-3.6-3.6s-3.6,1.48-3.6,3.6V22.4l-9.67-20.29c-.65-1.35-1.78-2.11-3.12-2.11-.57,0-1.14,.13-1.68,.4-1.92,.92-2.62,2.9-1.69,4.81l9.35,19.63h-2.56c-1.09,0-2.12,.04-3.01,.45-3.21,1.46-4.84,4.45-4.96,9.15v9.79c-.01,4.78,1.78,10.45,10.32,10.45h10.63c2.12,0,3.6-1.47,3.6-3.59V3.61h0Zm-7.21,43.86h-6.78c-2.18,0-3.36-1.2-3.36-3.38v-9.26c0-2.16,1.18-3.35,3.36-3.35h6.78v15.99Z"/><path class="cls-1" d="M235.18,3.61c0-2.12-1.48-3.6-3.61-3.6s-3.6,1.48-3.6,3.6V22.4l-9.67-20.29c-.62-1.35-1.77-2.11-3.12-2.11-.54,0-1.13,.13-1.67,.4-1.92,.92-2.62,2.9-1.71,4.81l9.36,19.63h-2.55c-1.08,0-2.13,.04-3.03,.45-3.2,1.46-4.82,4.45-4.95,9.15v.19s0,9.59,0,9.59c0,4.78,1.8,10.45,10.34,10.45h10.61c2.13,0,3.61-1.47,3.61-3.59V3.61Zm-7.21,43.86h-6.77c-2.16,0-3.37-1.2-3.37-3.38v-9.26c0-2.16,1.2-3.35,3.37-3.35h6.77v15.99Z"/></svg>