<?xml version="1.0" encoding="UTF-8"?><svg id="Calque_1" xmlns="http://www.w3.org/2000/svg" width="191.91" height="29.81" viewBox="0 0 191.91 29.81"><defs><style>.cls-1{fill:#fff;fill-rule:evenodd;}</style></defs><path class="cls-1" d="M14.59,.04C22.83,.04,26.81,5.72,27.73,8.67h-3.45c-1.03-1.88-3.91-5.53-9.69-5.53C8.27,3.14,3.45,8.17,3.45,14.96s4.83,11.74,11.15,11.74c5.9,0,8.81-3.65,9.73-5.45h3.33c-.84,2.76-4.83,8.56-13.06,8.56S0,23.52,0,14.92,6.36,.04,14.59,.04h0ZM154.49,8.67c5.9,0,10.3,4.72,10.15,11.32h-17.27c.23,3.88,3.18,6.94,7.2,6.94s5.98-2.42,6.78-4.11h3.03c-.77,2.76-3.76,6.94-9.81,6.94s-10.27-4.57-10.27-10.55,4.41-10.55,10.19-10.55h0Zm-114.84,0c4.56,0,6.7,2.91,7.32,4.26v-3.8h3.03V29.31h-3.03v-3.8c-.65,1.38-2.76,4.26-7.32,4.26-5.75,0-10.27-4.53-10.27-10.55s4.52-10.55,10.27-10.55h0Zm57.34,0c5.63,0,8.27,4.14,8.27,9.25v11.39h-3.06v-11.32c0-3.8-2.03-6.45-5.71-6.45s-5.82,2.72-5.82,6.6v11.16h-3.03V9.13h3.03v3.38c.38-1.11,2.14-3.84,6.32-3.84h0ZM119.21,.54V15.88L132.69,.54h3.98l-11.53,13.01,11.53,15.77h-3.83l-10-13.2-3.64,4.11v9.09h-3.33V.54h3.33Zm64.43,8.13c5.63,0,8.27,4.14,8.27,9.25v11.39h-3.06v-11.32c0-3.8-2.03-6.45-5.71-6.45s-5.82,2.72-5.82,6.6v11.16h-3.03V9.13h3.03v3.38c.38-1.11,2.15-3.84,6.32-3.84h0Zm-121.31,.46l6.4,17.07,6.4-17.07h3.33l-7.81,20.18h-3.83l-7.82-20.18h3.33Zm21.64,0V29.31h-3.03V9.13s3.03,0,3.03,0ZM141.43,0V29.31h-3.03V0s3.03,0,3.03,0Zm29.19,9.13V29.31h-3.03V9.13h3.03ZM56.69,0V29.31h-3.03V0h3.03Zm-16.93,11.55c-4.21,0-7.28,3.3-7.28,7.67s3.06,7.67,7.28,7.67,7.24-3.34,7.24-7.67-3.06-7.67-7.24-7.67Zm114.73-.08c-3.91,0-6.44,2.95-6.93,5.83h13.83c-.61-3.03-2.87-5.83-6.89-5.83ZM84.01,2.07v3.53h-3.1V2.07s3.1,0,3.1,0Zm86.65,0v3.53h-3.1V2.07s3.1,0,3.1,0Z"/></svg>