<?xml version="1.0" encoding="UTF-8"?><svg id="layer" xmlns="http://www.w3.org/2000/svg" width="600.01" height="184.91" viewBox="0 0 600.01 184.91"><defs><style>.cls-1{fill:#fff;}</style></defs><path class="cls-1" d="M93.7,169.71c24.7,0,35.3-14.5,38.8-20.4,2.8-4.6,6.5-12.3,10-20.3,2.9-6.7,5.6-9.7,8.8-9.7,2.8,0,4.6,2.2,4.6,5.8,0,1.9-5.3,28.9-5.5,30.2-1.2,7.3-2.3,10.3-4.6,12.7-1,1.1-2.3,2-4.7,3.4-15.3,8.9-32.3,13.5-49.5,13.5C39.8,184.91,0,145.61,0,94.41,0,57.01,19.7,25.41,52.8,9.41,59,6.41,74-.99,96.8,.11c23.1,1.1,40.5,14,45.4,16.8,8.1,4.7,7.2,12.1,7.4,14.4,.8,9.4,1.3,20.5,1.3,22.9,0,6.3-1.3,8.9-4.6,8.9-2.8,0-4.4-1.9-6.9-8.4-9.6-25.3-24.8-38.5-44.4-38.5s-39.3,12.9-48.3,33.1c-5.3,11.7-7.8,25.7-7.8,42.8,0,28.6,7.2,49.8,21.5,63.4,11,10.5,22.6,14.2,33.3,14.2"/><path class="cls-1" d="M205.1,12.91c0,4.5-.3,51.8-.3,52.9,0,3.5,.9,5.2,2.8,5.2,1.3,0,2.4-.5,4.8-2,6.8-4.1,15-6.2,23.6-6.4,9.1-.3,19.4,3,25.2,7.2,4.7,3.5,8.6,8.7,10.6,14.5,1.4,4.2,1.8,7.5,1.9,16.1,.2,7.6,.7,53.5,.7,53.5,0,10.8,1.4,14.2,7.5,17.8,2.9,1.8,3.8,2.6,3.7,3.7-.3,3-5.7,3.3-16.8,3.3l-27.9,.4c-6.7,0-9.4-.9-9.4-3,0-1.3,1.3-2.9,4.5-5.3,4.4-3.3,6.2-7.5,6.2-13.6,0-1-.9-62.9-.9-62.9-.2-11.2-9.4-13.5-16.5-13.8-6.8-.3-14.1,3.9-17.6,8.6-1.8,2.4-2.1,7.6-2.1,12.7,.1,7-.3,51.2-.3,52.6,0,4.9,.6,8.6,1.7,10.9,1,2.2,2,3.1,5.4,5.2,4.1,2.6,5.8,4.2,5.8,5.6,0,2.3-3.8,3.1-8.4,3.1h-37.5c-6.2,0-9-.9-8.8-2.9,.1-2.3,4.4-4,6.2-6s3.7-5.2,3.8-8.6c.1-2.4,.2-118.3,.2-118.3-.3-11-2.3-12.6-5-14.7-2.6-2-4-3.4-4-4.8,0-1.1,1.1-2.3,4-3.3,5.5-2,14.7-5.5,18.1-7.4,8.9-5,10.5-10.3,15-10,3.8,.3,3.8,5.2,3.8,9.7"/><path class="cls-1" d="M338.8,11.61s1,138.1,1,140c0,8.9,.6,13.2,2.8,16,1.8,2.4,10.2,4.7,9.7,8.7-.2,1.8-5,2.1-9.9,2.1-1.2,0-36.3,.3-36.3,.3-7.8-.2-10.1-.8-10.1-2.4,0-1.8,4.3-4.1,6.6-6,3.4-2.9,4.4-4,4.4-10.7,0-.7-.5-121-.5-121,0-4.6-1.7-7.9-5.1-10-2.4-1.5-4.3-3.1-3.3-5.1s3.5-2.9,6.5-3.7c3.1-.8,7.9-2.7,11.6-4.4,4.3-1.9,6.2-3.2,12.5-8,2.7-2.1,3.5-3.4,5.9-3.6,2.8-.3,4.4,1.5,4.2,7.8"/><path class="cls-1" d="M573.5,22.21c6.4,1.5,9.6,3.9,9.6,8.3,0,5.5-5.5,11.9-15.3,17.8-6.9,4.1-15.9,7.4-20.5,7.4-2.1,0-6.6-.2-6.6-4.2,0-2,2-4.1,6.9-7.2,3.1-1.9,3.9-2.7,5.1-4.6,1.2-1.9,1.8-3.8,1.8-5.8,0-2.9-1-5-3.7-7.8-2.4-2.5-3.3-4-3.3-5.5,0-3.9,5.6-4.7,8.7-3.7,4.6,1.5,16.5,5.1,17.3,5.3"/><path class="cls-1" d="M526.5,104.61c2.4-9.7,6.3-28.4,20.5-28.4,11.6,0,17.1,15,18.6,29.7,.4,3.7,.8,7.1-7.9,7.1h-23.9c-8.6-.1-8.6-3-7.3-8.4m50.4,22c5,0,19.1,.7,21.4-1.5,1.9-1.9,1.7-3.6,1.7-7,0-27.5-19.4-55.3-52.7-55.3-36.5,0-57.6,33.9-57.6,58.7,0,33.2,26.6,60.1,59.4,60.1,17.2,0,33.9-7,44.4-18.7,2.6-2.9,3.7-5.1,3.7-7.3,0-2.8-2.2-5-4.9-5-1.8,0-3.7,1.1-6.7,3.8-5,4.6-19.2,15.1-33.3,12.2-27.3-5.8-26.8-36.2-25.5-39.9,0-.1,48.4-.1,50.1-.1"/><path class="cls-1" d="M421.5,168.41c-21.8,0-28.1-22.6-28.1-46.5,0-31,13.9-45.7,23.9-45.7,23.9,0,27.6,26.9,27.6,45.7-.1,32.3-12.1,46.5-23.4,46.5m-.6-105.8c-43.3,0-62.8,34.1-62.8,58,0,30.4,20.9,61.4,60.8,61.4,34.4,0,60.4-26,60.4-59.6s-26.3-59.8-58.4-59.8"/></svg>