<svg xmlns="http://www.w3.org/2000/svg" id="Layer_1" width="698.608" height="386.306" viewBox="0 0 523.94 289.73"><defs><style>.cls-1{fill:#fff}</style></defs><path d="M123.48,87.41v-9.86h7.78v9.86h-7.78Zm0-25.42v-14.18c1.3,.86,2.45,2.23,2.45,4.39v9.79h-2.45Zm-77.11,6.62h.58c11.38,.29,8.78-8.42,8.78-25.27s2.3-24.98-9.36-25.06V0h10.94c14.9,0,25.2,10.15,25.2,15.26l-.29,57.17c0,8.42-9,14.98-23.26,14.98h-12.6v-18.79h0Zm77.11-20.81v14.18l-6.26,.07c-.07-6.48-1.66-6.98-3.82-6.98-2.16,.07-3.82,1.58-3.82,6.91v15.98h3.6v9.43h-21.02v-9.43h2.52v-21.02h-2.52v-9.5h16.78v4.9c.79-1.94,5.04-5.76,10.51-5.98,.43,0,2.38,.36,4.03,1.44h0Zm0,29.74h-2.45v9.86h2.45v-9.86Zm-86.76-9.14l9.65,.22v18.79H3.6v-17.5h2.81c2.59,.14,3.6-1.51,3.6-3.31V20.81c.07-2.3-1.44-2.95-3.96-3.17l-2.45-.14V0H46.37V18.29h-9.65v50.11Z" class="cls-1"/><path d="M364.03,176.4c-8.42,44.57-49.46,78.62-98.5,78.62-36.22,0-68.04-18.5-85.61-46.08,15.91,12.46,44.42,46.58,105.05,36.36-23.4-5.98-52.13-8.93-80.93-37.73,67.82,.79,116.93-14.9,159.98-31.18Z" class="cls-1"/><path d="M292.25,84.6v-6.62c1.15,.07,2.23,.14,3.38,.22,1.15-1.94,2.3-3.82,3.46-5.76-.58-.5-1.15-.94-1.73-1.37-1.73,1.15-3.38,2.38-5.11,3.6v-6.41c2.74-1.94,5.47-3.82,8.21-5.76,.07-1.22,.22-2.52,.29-3.74-.86-.36-1.8-.72-2.74-1.01,.14-1.3,.29-2.52,.36-3.74h11.95c-1.15,6.19-2.23,12.46-3.38,18.72,.79,1.51,1.58,3.02,2.38,4.46-1.51,3.17-2.95,6.41-4.46,9.58-1.66-1.73-3.38-3.38-5.11-5.11-2.52,.94-4.97,1.94-7.49,2.95h0Zm0-40.32v-9.36c2.59,.07,5.26,.14,7.85,.29v3.74c-1.58,1.01-3.17,2.02-4.75,3.02-1.08,.79-2.09,1.51-3.1,2.3h0Zm27.29,7.63c3.67,1.22,7.34,2.52,10.94,3.74-.22,1.58-.43,3.24-.65,4.82-.79,3.96-1.58,7.92-2.38,11.95,2.02,.29,4.03,.65,6.12,1.01-2.88,2.38-5.69,4.75-8.57,7.2-2.02-.14-4.1-.29-6.12-.36,.94-6.98,1.8-13.9,2.74-20.88-1.3-1.22-2.52-2.45-3.74-3.74,.58-1.22,1.08-2.52,1.66-3.74h0Zm5.54-16.42c1.66-.36,3.31-.79,4.97-1.15,.58-.14,1.08,.22,1.22,.72,.36,1.37,.65,2.66,.94,4.03,.14,.5-.14,1.08-.72,1.22-1.66,.36-3.31,.79-4.97,1.15-.58,.14-1.15-.22-1.22-.72-.36-1.37-.65-2.66-1.01-3.96-.14-.58,.22-1.15,.79-1.3h0Zm15.7,16.42c3.6,.14,7.27,.22,10.87,.36,2.88,1.37,5.69,2.74,8.57,4.1-.36,1.94-.72,3.82-1.01,5.76-1.3-.07-2.52-.22-3.74-.29-.94-1.08-1.87-2.09-2.74-3.1-1.15,.36-2.3,.65-3.46,1.01-.65,3.46-1.37,6.84-2.02,10.3,1.15,1.66,2.23,3.38,3.38,5.11-1.73,1.58-3.38,3.17-5.11,4.75-2.38-1.8-4.75-3.67-7.2-5.47,1.15-5.69,2.3-11.38,3.46-17.06-.36-1.8-.72-3.67-1.01-5.47Zm-162.72,3.96c1.73-3.53,3.67-6.91,5.98-10.08,1.37-.14,2.74-.29,4.1-.36v39.31c2.16,1.8,4.32,3.6,6.48,5.4-3.53,2.45-7.06,4.82-10.58,7.2-1.51-4.1-2.95-8.21-4.46-12.31-.5,0-1.01,0-1.51-.07v-8.64c.94,.22,1.94,.36,2.88,.5-.58-2.95-1.15-5.9-1.73-8.86-.36,.79-.79,1.51-1.15,2.3v-14.4h0Zm114.19-20.95v9.36c-.72,.5-1.37,1.01-2.09,1.51-3.53,9.22-7.06,18.43-10.58,27.65-2.95,2.81-5.83,5.69-8.78,8.57-.94-3.82-1.8-7.56-2.74-11.3-2.02,1.51-4.1,2.95-6.12,4.46v4.39c-1.15,.58-2.3,1.15-3.46,1.73-2.37-3.1-4.75-6.12-7.2-9.22-.29-7.63-.65-15.26-1.01-22.9-1.22-2.59-2.52-5.26-3.74-7.85,3.17-2.88,6.41-5.69,9.58-8.57,.43,8.57,.94,17.14,1.37,25.63h2.38c1.37-1.8,2.74-3.6,4.1-5.47-.58-1.94-1.15-3.82-1.73-5.76,3.67-2.3,7.34-4.61,10.94-6.84,.43,6.7,.86,13.39,1.3,20.16,.58,.43,1.15,.86,1.73,1.37,4.75-9,9.58-18,14.33-27,.58,0,1.15,0,1.73,.07h0Zm0,33.34c-2.66,1.87-5.26,3.67-7.85,5.54,.43,1.94,.86,3.82,1.37,5.76,2.02,1.73,4.1,3.46,6.12,5.18,.14-.07,.22-.14,.36-.14v-6.62c-.43,0-.94-.07-1.37-.07,.22-.94,.43-1.87,.65-2.74,.29-.22,.5-.36,.72-.5v-6.41h0Zm-90.79-10.51c3.6,1.22,7.27,2.45,10.94,3.74-.29,1.58-.5,3.17-.72,4.75-.79,4.03-1.58,7.99-2.38,11.95,2.02,.36,4.1,.72,6.12,1.08-2.81,2.38-5.69,4.75-8.5,7.13-2.09-.07-4.1-.22-6.19-.36,.94-6.91,1.87-13.82,2.74-20.81-1.22-1.22-2.52-2.52-3.74-3.74,.58-1.3,1.15-2.52,1.73-3.74h0Zm5.47-16.42c1.66-.43,3.31-.79,4.97-1.22,.58-.07,1.15,.22,1.3,.79,.29,1.3,.58,2.66,.94,3.96,.14,.58-.22,1.15-.79,1.22-1.66,.43-3.31,.79-4.97,1.22-.5,.14-1.08-.22-1.22-.72-.29-1.37-.65-2.66-.94-4.03-.14-.5,.22-1.08,.72-1.22h0Zm17.06,16.42c3.67,.07,7.27,.22,10.94,.29,2.81,1.37,5.69,2.74,8.5,4.1-.29,1.94-.65,3.89-1.01,5.83-1.22-.14-2.52-.22-3.74-.36-.94-1.01-1.8-2.02-2.74-3.02-1.15,.29-2.3,.65-3.38,1.01-.72,3.38-1.37,6.84-2.09,10.22,1.15,1.73,2.3,3.46,3.46,5.11-1.73,1.58-3.46,3.24-5.18,4.82-2.38-1.87-4.75-3.67-7.13-5.47,1.15-5.69,2.23-11.38,3.38-17.06-.36-1.87-.65-3.67-1.01-5.47Zm-65.59,32.76c.43-1.15,.94-2.23,1.37-3.38,1.73,.29,3.38,.65,5.11,1.01,2.38-5.83,4.82-11.59,7.2-17.42,1.8-5.04,3.67-10.01,5.98-14.83v14.4c-1.01,1.87-1.94,3.67-2.95,5.54,1.01,.22,1.94,.36,2.95,.5v8.64c-2.02-.07-4.03-.14-5.98-.22-1.51,4.54-2.95,9.07-4.46,13.61-3.1-2.59-6.12-5.18-9.22-7.85Z" class="cls-1"/><g><path d="M501.7,111.67l18.36-12.82c2.23-2.38,3.6-4.54,3.89-6.77l-22.25,15.62v3.96h0Zm0-7.99v-4.03l20.52-14.4c.65,1.08,1.08,2.09,1.37,3.02l-21.89,15.41h0Zm0-7.99v-4.03l16.85-11.81,1.87,2.66-18.72,13.18h0Zm0-8.06l14.9-10.44-6.84-9.58c-2.45-2.23-5.04-3.38-8.06-3.1v23.11Zm-18.07,36.72l18.07-12.67v-3.96l-18.07,12.6v4.03h0Zm18.07-59.83v23.11l-3.67,2.59-2.74-4.1c-1.51-1.8-4.32-1.66-6.91,.22l-4.75,3.38v-14.76l10.66-7.27c2.81-1.94,5.18-2.95,7.42-3.17h0Zm0,27.14v4.03l-18.07,12.6v-4.03l6.77-4.68c.94,.5,2.02,.79,3.02,.65l4.68-3.31c1.08-.94,1.44-2.38,1.3-3.67l2.3-1.58h0Zm0,7.99v4.03l-18.07,12.6v-3.96l18.07-12.67h0Zm-18.07,.65l3.96-2.81c-.5-.43-.86-.86-1.22-1.22l-2.74,1.87v2.16h0Zm0-33.55l.07,.07,15.41-11.02-10.66-15.34-4.82,3.46v22.82Zm-3.89,56.3l1.87,2.74,2.02-1.44v-4.03l-3.89,2.74h0Zm3.89-79.13v22.82c-2.02-.65-4.03-2.66-5.98-2.02l-5.54,3.82c-1.15,1.66-1.44,2.09-.14,4.25l2.95,4.25c1.8,1.51,4.46,1.08,6.7-.65l2.02-1.44v14.76l-10.66,7.49c-4.75,2.59-8.64,3.53-14.4-2.16l-10.66-15.05c-1.08-1.66-1.66-3.31-1.73-4.9v-.79c.14-2.23,1.22-4.39,3.38-6.48l34.06-23.9h0Zm0,54.22l-14.26,10.01,1.01,1.44,13.25-9.29v-2.16h0Zm0,6.12v4.03l-9.5,6.7-1.87-2.74,11.38-7.99h0Zm0,8.06v3.96l-5.76,4.1-1.87-2.74,7.63-5.33Z" class="cls-1"/><path d="M151.42,184.75c-1.37,1.3-2.88,2.38-4.54,3.31-.5,.29-1.08,.58-1.66,.79v-4.1h6.19Zm-6.19-3.24v-3.31h33.48v3.31h-33.48Zm0-6.62v-3.24h33.48v3.24h-33.48Zm0-6.55v-1.73c2.74-.14,5.04-1.37,6.77-3.74,1.8-2.3,2.66-5.47,2.66-9.5s-.86-7.13-2.66-9.5c-1.73-2.3-4.03-3.53-6.77-3.67v-17.86c.29,.14,.58,.22,.79,.36,2.74,1.15,5.4,3.46,7.92,6.91v-6.26h19.87v38.16c-.22,5.11,2.52,5.11,4.9,5.11v1.73h-33.48Zm33.48,16.42v3.31h-24.77v-3.31h24.77Zm-33.48,4.1c-2.38,1.01-4.97,1.44-7.85,1.44l-1.08,.14c-5.98-.07-10.87-1.94-14.76-5.69h23.69v4.1h0Zm0-66.53v17.86h-.07c-3.02,.22-5.33,1.51-6.84,3.89-1.51,2.45-2.38,5.11-2.59,8.06v1.22c0,3.38,.79,6.34,2.3,9,1.51,2.66,3.89,4.1,7.13,4.25h.07v1.73h-32.54c-1.01-3.96-1.51-8.21-1.51-12.74,0-1.01,0-2.16,.07-3.31,.07-1.15,.22-2.3,.36-3.46,.79-6.98,3.17-13.39,7.06-19.22,3.96-5.76,9.79-8.64,17.64-8.64h1.08c2.74,0,5.4,.43,7.85,1.37h0Zm0,49.32v3.24h-30.24c-.43-1.01-.86-2.16-1.3-3.24h31.54Zm0,6.55v3.31h-26.5c-.36-.58-.72-1.08-1.08-1.66-.36-.5-.72-1.08-1.01-1.66h28.58Z" class="cls-1"/><path d="M361.87,176.18v-3.96l6.62-1.73-.07,.07c-1.8,2.16-4.03,4.03-6.55,5.62h0Zm0-7.34v-3.38l10.87-2.95c-.36,1.37-.86,2.59-1.44,3.82l-9.43,2.52h0Zm0-6.77v-3.38l11.45-3.1c.14,1.15,.14,2.3,0,3.38l-11.45,3.1h0Zm0-6.84v-7.2l9.29-2.45,1.3,5.04c.22,.58,.29,1.15,.43,1.66l-11.02,2.95h0Zm0-14.26v-25.78c1.3,2.09,2.3,4.46,3.02,7.2l4.46,16.56-7.49,2.02Zm0-25.78v25.78l-11.81,3.17v-37.44c.43,.14,.94,.29,1.37,.43,4.54,1.58,7.99,4.25,10.44,8.06h0Zm0,32.83v7.2l-9.43,2.52c-.07-.79-.29-1.66-.5-2.59l-1.15-4.18,11.09-2.95h0Zm0,10.66v3.38l-11.81,3.17v-.29c.94-.72,1.66-1.58,2.02-2.66,.14-.36,.22-.72,.29-1.08l9.5-2.52h0Zm0,6.77v3.38l-11.81,3.17v-3.38l11.81-3.17h0Zm0,6.77v3.96c-3.02,1.8-6.55,3.31-10.58,4.39-.43,.07-.86,.22-1.22,.29v-5.47l11.81-3.17Zm-23.26-38.59l7.06-1.87-.72-2.52c-.94-3.67-2.09-6.12-3.38-7.34-.72-.72-1.73-1.15-2.95-1.15v-14.98c4.1-.43,7.92-.07,11.45,.94v37.44l-11.45,3.02v-13.54h0Zm11.45,31.32v.29l-1.08,.29c.36-.22,.72-.36,1.08-.58h0Zm0,3.67v3.38l-11.45,3.1v-3.46l11.45-3.02h0Zm0,6.77v5.47c-4.03,.94-7.85,1.3-11.45,1.01v-3.38l11.45-3.1h0Zm-11.45-7.13v-3.38l2.02-.5c.22,.29,.5,.58,.79,.86,1.15,.94,2.52,1.3,4.32,1.15l-7.13,1.87h0Zm0-6.77v-.86c.14,.29,.22,.5,.29,.79l-.29,.07Zm-6.84-26.06l6.84-1.8v13.54l-3.38,.94,2.88,10.73c.14,.65,.36,1.22,.5,1.8v.86l-20.09,5.4c-.22-.58-.43-1.22-.58-1.8l-7.56-28.37c-.58-1.94-.86-3.89-.94-5.69v-1.66c.22-4.54,1.87-8.64,5.04-12.31,3.96-4.68,9.72-7.99,17.14-10.01,2.38-.65,4.75-1.08,6.98-1.3v14.98c-.86-.07-1.94,.07-3.1,.36-4.68,1.3-6.12,5.26-4.39,11.88l.65,2.45h0Zm6.84,29.45l-18.86,5.04c.5,1.08,1.08,2.02,1.73,2.95l17.14-4.61v-3.38h0Zm0,6.77v3.46l-11.59,3.1c-1.15-.72-2.23-1.58-3.24-2.52l14.83-4.03h0Zm0,6.84v3.38c-2.45-.22-4.82-.72-7.06-1.51l7.06-1.87Z" class="cls-1"/><path d="M280.01,96.55l6.26-.58,1.58,17.86c.79,2.59,2.16,3.96,5.33,4.18l1.51,16.92-4.32,2.02-1.3,4.9,1.37,15.19c.86,3.17,3.31,6.19,8.35,5.69l.14,2.23-18.94,1.66V96.55h0Zm0,89.78v-3.24l20.38-1.8,.29,3.24-20.66,1.8h0Zm0-6.55v-3.31l19.8-1.73,.29,3.24-20.09,1.8h0Zm0-6.62v-3.24l19.22-1.73,.29,3.31-19.51,1.66Zm-19.22-4.9l-.22-2.16c4.97-.43,6.91-3.82,7.2-7.13l-1.3-15.19-2.09-4.61-4.61-1.22-1.44-16.92c3.02-.72,4.18-2.38,4.46-5.04l-1.51-17.86,18.72-1.58v70.06l-19.22,1.66h0Zm19.22,1.66v3.24l-18.65,1.66-.29-3.24,18.94-1.66h0Zm0,6.55v3.31l-18.07,1.58-.29-3.24,18.36-1.66h0Zm0,6.62v3.24l-17.5,1.58-.29-3.31,17.78-1.51Z" class="cls-1"/><path d="M447.19,144.94v-3.46l13.9-5.04,1.08,3.02-14.98,5.47h0Zm0-6.98l12.74-4.61-1.08-3.1-11.66,4.25v3.46h0Zm0-6.98v-3.46l9.36-3.46,1.15,3.1-10.51,3.82h0Zm0-6.98v-7.56h0c1.44,3.24,5.04,3.89,7.49,2.52l.79,2.02-8.28,3.02Zm-20.09,24.77l1.15,3.1-17.35,6.34v-3.53l16.2-5.9h0Zm20.09-32.33v7.56l-18.43,6.7-.79-2.02-8.06-22.25c-2.09-2.66-4.03-3.96-6.41-3.17-1.37,.5-2.16,1.58-2.59,2.95v-22.9c1.01-1.01,2.23-1.94,3.46-2.66,10.44-5.54,22.03,1.94,23.98,9.22l5.76,16.85-.43,.14,3.53,9.58h0Zm0,11.09l-17.28,6.26,1.08,3.1,16.2-5.9v-3.46h0Zm0,6.98v3.46l-13.97,5.11-1.08-3.1,15.05-5.47h0Zm0,6.98l-12.82,4.68,1.15,3.02,11.66-4.25v-3.46h0Zm-36.29,9.72l15.12-5.54-1.15-3.02-13.97,5.04v3.53h0Zm0-6.98v-3.53l11.74-4.25,1.08,3.1-12.82,4.68h0Zm0-6.98l10.58-3.89-.72-2.09c-1.15,.94-3.02-.36-4.46-3.6l-4.39-12.1c-.43-1.15-.79-2.38-1.01-3.6v25.27Zm0,20.95l-13.97,5.04-1.15-3.02,15.12-5.54v3.53h0Zm0-74.88v22.9c-.5,1.66-.43,3.74,0,5.76v25.27l-20.74,7.49-.72-2.02c4.61-1.66,4.03-4.9,3.45-8.14l-5.26-14.33-3.17-3.96h-4.68l-5.83-15.98,27.5-9.94,2.23,6.19c.14-1.8,2.59-8.71,7.2-13.25h0Zm0,57.38l-19.58,7.13,1.08,3.1,18.5-6.7v-3.53h0Zm0,6.98l-17.35,6.34,1.08,3.1,16.27-5.9v-3.53Z" class="cls-1"/><path d="M225.72,184.75v3.31h-36.65v-3.31h36.65Zm0-6.55v3.31h-36.65v-3.31h36.65Zm0-6.55v3.24h-36.65v-3.24h36.65Zm-7.42-50.62v6.7c.94-2.02,7.63-11.45,15.48-11.3,9.29,.14,15.62,10.44,16.42,16.78l-.36,17.78h-17.78c-1.44-8.14-2.66-13.54-6.84-13.61-4.18-.07-5.69,5.98-5.69,11.02v12.82c.22,3.6,3.38,5.4,6.19,4.97v2.16h-36.65v-2.16c4.97,0,5.54-3.24,6.05-6.48v-15.26l-1.58-4.75-4.46-1.66v-16.99h29.23Z" class="cls-1"/><path d="M103.03,184.75v3.6H59.69v-3.6h43.34Zm0-6.55v3.31H59.69v-3.31h43.34Zm0-6.55v3.24H59.69v-3.24h43.34Zm-60.12,13.1v3.6H0v-3.6H42.91Zm0-6.55v3.31H0v-3.31H42.91Zm0-6.55v3.24H0v-3.24H42.91Zm-8.28-10.73c.58,3.89,1.51,3.17,4.25,5.54h4.03v1.87H0v-1.87H5.47c4.97-1.37,6.26-4.61,6.12-8.5l.07-34.56c-.29-3.89-2.66-5.9-6.19-6.12H0v-18.65H31.25l17.21,28.73,13.61-28.73h40.97v18.65h-5.47c-3.96,.58-6.91,2.95-6.55,7.2v35.21c.36,3.74,2.59,6.7,6.55,6.77h5.47v1.87H59.69v-1.87c4.39-.72,5.18-1.8,5.54-4.39l.07-10.94-15.12,12.89-15.62-13.82,.07,10.73Z" class="cls-1"/></g><path d="M380.45,174.96c-12.96,55.22-61.78,96.55-119.74,96.55-51.84,0-96.41-33.05-114.48-79.63l-15.41,1.15c13.97,55.3,66.96,96.7,129.89,96.7,69.91,0,127.58-51.12,133.06-115.78l-13.32,1.01Zm-198.12,82.11c1.77-3.1,2.16-3.68,2.9-4.86l-.05-.05c-1.08,.88-1.52,1.18-4.52,3.39l-1.03-.94,3.24-6.63,1.23,1.08c-1.96,3.49-2.21,3.93-2.65,4.62,.59-.45,1.18-.94,4.22-3.2l1.18,1.03c-2.02,3.48-2.21,3.83-2.7,4.61,.54-.39,1.03-.78,4.37-3.09l1.13,1.03-6.28,3.93-1.03-.93Zm6.73,5.35l-1.18-.93,4.32-5.7,1.18,.93-4.32,5.7Zm9.97-.39l-3.1,4.96-1.28-.78,3.14-4.97-1.87-1.13,.69-1.08,4.91,3.04-.64,1.08-1.87-1.13Zm7.22,10.46l-1.33-.64,1.47-2.84-2.5-1.28-1.42,2.85-1.33-.69,3.19-6.33,1.33,.69-1.18,2.4,2.45,1.23,1.23-2.41,1.33,.69-3.24,6.34Zm20.47,.49s2.16,2.46,1.87,4.37c-.24,1.91-2.55,4.42-5.8,4.42s-4.37-1.57-4.47-4.08c-.15-2.5,.25-8.2,.74-9.48,.49-1.22,1.18-1.67,3.19-1.67s7.51,.25,7.51,3.54c0,.78-1.52,2.2-3.04,2.89Zm14.53,5.7c0,.59-.49,4.67-5.5,4.67s-5.06-4.03-4.96-5.4c0,0,.44-5.25,5.69-4.91,5.21,.39,4.76,5.11,4.76,5.65Zm9.92,6.53s-.49,1.23-1.86,.79c-1.42-.45-1.42-.64-1.28-1.03,0,0-2.4,.88-3.73-.05-1.28-.99-3.24-2.61-.44-8.84,0,0,.54-2.01,2.21-.98,1.62,.98,.88,1.27,.34,2.21-.39,.74-1.82,5.55,.24,6.04,2.11,.49,3-2.41,2.95-4.42-.05-2.01-.29-3.63,1.62-2.9,0,0,1.38,0,1.23,2.16-.15,2.11-.74,5.84-1.28,7.02Zm12.62-.05c-.2,.59-.34,2.11-2.21,1.22-1.67-.78-.99-1.18-.64-2.16,.29-.74,1.86-5.4-1.03-5.89-1.72-.35-2.45,2.8-2.11,4.81,.3,1.97,.59,3.49-1.42,3.04,0,0-1.28,.2-1.42-1.96-.2-2.16-.1-5.89,.29-7.12,0,0,.25-1.28,1.72-1.09,1.43,.25,1.43,.45,1.38,.84,0,0,2.11-.88,3.68-.39,1.67,.54,3.83,1.87,1.77,8.69Zm10.65,.2c-.49,.54-3.97,2.11-6.19,.29-2.21-1.82-2.6-5.21-.78-7.41,1.82-2.16,5.06-2.71,6.73-1.58,0,0,1.43,.69,.59,1.58-.84,.83-1.38,.59-1.67,.19-.35-.39-2.56-.88-3.34,1.13-.84,1.97-.25,2.85,.59,3.78,.83,.93,2.51,.73,3.54-.1,0,0,.84-.88,1.23-.3,.39,.59-.25,1.92-.69,2.41Zm2.46-11.69c0-.54,.64-1.03,1.47-1.08,.83-.05,1.52,.34,1.57,.88,0,.49-.64,.98-1.48,1.03-.83,.05-1.52-.35-1.57-.84Zm3.54,12.08c-1.13,.39-2.5,.19-2.75-1.38-.24-1.62-.64-5.6-.59-6.97,0,0-.34-1.57,1.33-1.48,1.72,.05,1.57,.54,1.57,1.82s.49,4.76,1.08,5.8c.64,1.03,.54,1.82-.63,2.21Zm12.03-2.85c-1.87-.34-1.28-.88-1.18-1.91,.05-.84,.25-5.75-2.7-5.4-1.72,.14-1.52,3.39-.69,5.2,.83,1.82,1.57,3.2-.49,3.34,0,0-1.23,.54-2.01-1.47-.74-2.01-1.67-5.65-1.67-6.97,0,0,0-1.33,1.43-1.47,1.42-.2,1.52,0,1.56,.39,0,0,1.82-1.43,3.44-1.38,1.71,.05,4.17,.74,4.07,7.86,0,.64,.24,2.16-1.76,1.82Zm12.52-1.62c-1.87,.73-4.96,1.52-7.02-.15-2.01-1.67-1.28-4.91,.64-7.22,0,0-2.31-1.03-2.41-2.7-.09-1.67,1.18-3.73,4.91-3.98,0,0,.78-1.08,1.27-1.62,.49-.54,.94-.74,1.47-.25,.54,.44,.74,.84,.2,1.08-.49,.25-.79,.88-.79,.88,0,0,1.92,.93,1.92,2.65s-1.97,3.24-4.71,4.12c0,0-.49,.69,.59,.5,1.13-.15,3.93-1.28,6.23,.63,2.31,1.91-.44,5.25-2.31,6.04Zm14.34-9.63c-2.31,1.18-3.39,.05-3.78-.73l1.28-.64c.2,.35,.69,.94,1.86,.35,.64-.35,1.23-.84,.88-1.52-.24-.49-.79-.39-1.52-.2l-.78,.2c-1.13,.29-2.26,.54-2.95-.84-.39-.74-.64-2.16,1.42-3.18,1.97-1.04,3.14,0,3.54,.78l-1.28,.64c-.2-.25-.64-.88-1.77-.29-.54,.24-1.03,.73-.74,1.32,.25,.49,.74,.39,1.03,.35l1.72-.44c.98-.2,1.97-.3,2.55,.88,.99,1.91-.88,3.04-1.47,3.33Zm7.95-4.37c-.78,.49-3.1,1.48-4.91-1.37-1.76-2.85,.15-4.46,.93-5.01,.79-.49,3.14-1.47,4.91,1.37,1.77,2.85-.15,4.52-.93,5.01Zm5.74-3.83l-4.27-5.69,1.17-.88,3.54,4.67,2.8-2.16,.78,1.03-4.03,3.04Zm5.75-4.46l-4.47-5.55,4.08-3.34,.79,.98-2.95,2.4,.98,1.18,2.71-2.21,.78,.98-2.7,2.21,1.13,1.42,3.09-2.51,.79,.99-4.22,3.44Zm8.49-7.71c-1.72,1.91-3.14,1.22-3.83,.64l.98-1.03c.29,.25,.98,.59,1.87-.39,.49-.49,.88-1.18,.29-1.72-.39-.34-.88-.05-1.52,.39l-.64,.44c-.98,.69-1.91,1.33-3.04,.3-.59-.54-1.37-1.82,.2-3.54,1.47-1.62,2.89-1.08,3.59-.54l-.99,1.08c-.25-.2-.88-.59-1.77,.39-.39,.39-.69,1.03-.2,1.48,.39,.39,.79,.1,1.03-.05l1.52-1.03c.78-.54,1.72-.93,2.65-.1,1.62,1.43,.29,3.2-.15,3.69Z" class="cls-1"/><path d="M223.03,273.51s2.31-.24,2.16,1.87c-.15,2.11-1.72,3.29-2.51,3.44-.83,.1-1.87-1.23-1.87-3.24s.39-2.16,2.21-2.07Z" class="cls-1"/><path d="M221.07,269.84s-.05-1.52,1.27-1.52,3.83,.1,3.83,1.47-1.28,1.62-2.8,1.62-2.46,.49-2.31-1.57Z" class="cls-1"/><path d="M233.63,277.98c.05-.83,.49-3.29,2.65-3.04,1.91,.19,2.31,1.82,2.21,2.75-.15,.79-.44,2.99-2.41,2.9-2.01-.1-2.55-1.18-2.46-2.6Z" class="cls-1"/><path d="M299.08,271.06s-1.03-.98,.54-1.87c1.57-.94,2.26-.3,2.41,.1,.15,.44,.68,1.47-.44,2.06-1.08,.64-2.06,.44-2.5-.29Z" class="cls-1"/><path d="M299.28,279.11s-.2-2.06,2.11-2.95c2.31-.88,3.93-.44,4.37,.49,.44,.98-.39,2.65-2.06,3.14-1.72,.54-3.88,.88-4.42-.69Z" class="cls-1"/><path d="M323.63,265.12c-1.03-1.67-.35-2.7,.35-3.14,.68-.39,1.86-.59,2.94,1.08,1.08,1.72,.35,2.75-.34,3.14-.64,.44-1.86,.63-2.95-1.08Z" class="cls-1"/></svg>