<?xml version="1.0" encoding="UTF-8"?><svg id="Calque_1" xmlns="http://www.w3.org/2000/svg" width="340.16" height="42.24" viewBox="0 0 340.16 42.24"><defs><style>.cls-1{fill:#fff;}</style></defs><path class="cls-1" d="M56.74,18.14c-1.1-2.39-1.67-3.63-2.44-5.49-.71,1.86-.95,2.43-2.29,5.63l-2.62,6.44h10.31l-2.96-6.58Zm-10.31,14.55l-3.68,8.12h-10.75L50.72,1.38h9.07l18.71,39.43h-10.59l-4-8.12h-17.48Zm58.85-14.22c2.19,0,3.1-.14,4-.62,1.43-.83,2.32-2.35,2.34-4-.03-1.65-.91-3.17-2.34-4-.86-.48-1.77-.58-4-.58h-13.13v9.12l13.13,.08Zm-13.13,22.34h-9.88V1.38h25.73c4.58,0,7.06,.58,9.4,2,3.02,1.92,4.84,5.25,4.82,8.83,0,4.68-2.43,8.16-6.87,10,3.91,1.39,5.11,3.58,5.2,9.74,.19,4.92,.48,6.35,1.67,8.88h-10.88c-.72-2.2-.86-3.1-.76-6.88,0-5.72-1.58-7.49-6.64-7.49h-11.79v14.35Zm76.27,0V1.38h36.08V9.38h-26.2v7.4h23.15v8h-23.15v8.12h26.2v8l-36.08-.09Zm64.72,0h-9.88V9.35h-13.65V1.35h37.13V9.35h-13.6v31.46Zm62-15.42c-2.82,11.22-10.5,16.85-23.24,16.85-14.51,0-23.68-8.07-23.68-20.76S257.67,0,272.13,0c6.93,0,12.37,1.81,16.66,5.68,2.92,2.43,4.95,5.75,5.78,9.45h-10.65c-2-5-5.91-7.45-11.83-7.45-7.93,0-13.41,5.59-13.41,13.61s5.44,13.27,13.22,13.27c6.3,0,10.07-2.82,12.36-9.17h10.88ZM330.32,1.38v15.37h-20.32V1.38h-9.88V40.81h9.88V24.72h20.29v16.09h9.87V1.38h-9.84ZM0,40.81V1.38H34.6V9.38H9.88v7.4h22.67v8H9.88v16.03H0Zm128.71,0V1.38h34.61V9.38h-24.73v7.4h22.72v8h-22.72v16.03h-9.88Z"/></svg>