<?xml version="1.0" encoding="UTF-8"?><svg id="Calque_1" xmlns="http://www.w3.org/2000/svg" width="103.16" height="14.99" xmlns:xlink="http://www.w3.org/1999/xlink" viewBox="0 0 103.16 14.99"><defs><style>.cls-1{fill:#fff;}</style><symbol id="lacoste" viewBox="0 0 103.16 14.99"><path class="cls-1" d="M20.32,12.17l3.01-6.4h-5.84l2.83,6.4ZM2.64,14.7H0V.29H10.52V2.6H2.64V14.7Zm78.86-2.3V.29h2.64V12.39h5.2v2.3h-12.89v-2.3s5.05,0,5.05,0ZM53.39,2.56c-2.94,0-5.16,2.16-5.16,4.94s2.22,4.93,5.16,4.93,5.16-2.16,5.16-4.93-2.22-4.94-5.16-4.94Zm-15.79,9.87c2.22,0,3.47-1.17,4.18-1.79l1.85,1.75c-.6,.66-2.37,2.6-6.07,2.6-4.26,0-8.02-2.78-8.02-7.49s3.73-7.49,7.99-7.49c3.28,0,5.5,1.72,6.22,2.34l-1.47,2.01c-1.17-.95-3.01-1.79-4.71-1.79-2.94,0-5.16,2.16-5.16,4.94s2.22,4.93,5.2,4.93h0ZM63.45,1.72C64.05,1.24,65.86,0,69.02,0s5.8,1.68,5.8,4.31c0,5.48-8.18,3.73-8.18,6.73,0,.84,.72,1.54,2.6,1.54,2.26,0,3.73-.99,4.29-1.43l1.09,2.12c-.68,.62-2.75,1.72-5.39,1.72-3.96,0-5.58-2.16-5.58-4.28,0-4.97,8.18-3.55,8.18-6.51,0-1.24-1.28-1.79-2.75-1.79-2.22,0-3.99,.95-4.75,1.5l-.9-2.19h0Zm39.48,12.98h-11.26V.29h11.49V2.6h-8.85v3.77h7.53v2.3h-7.53v3.73h8.63v2.3h0ZM25.93,.29h3.11l-7.14,14.4h-2.98L12.33,.29h2.75l1.43,3.25h7.87l1.54-3.25h0ZM53.39,0C57.64,0,61.41,2.78,61.41,7.49s-3.77,7.49-8.02,7.49-8.02-2.78-8.02-7.49S49.13,0,53.39,0Z"/></symbol></defs><use width="103.16" height="14.99" transform="translate(0 14.99) scale(1 -1)" xlink:href="#lacoste"/></svg>