<svg xmlns:xlink="http://www.w3.org/1999/xlink"  width="4.04" viewBox="0 0 1122.52 203.936" xmlns="http://www.w3.org/2000/svg" data-test="offw-logo" class="css-y7iddj e1jmczl81" height="1" ><clipPath id="a"><path d="M0 152.952h841.89V0H0z"></path></clipPath><g clip-path="url(#a)" transform="matrix(1.33333 0 0 -1.33333 0 203.936)"><path d="M89.318 28.853c5.604 3.763 9.87 8.975 12.792 15.635 2.924 6.66 4.386 14.214 4.386 22.66 0 11.155-2.112 20.875-6.335 29.159-4.223 8.285-9.72 14.606-16.488 18.965-6.769 4.358-13.835 6.539-21.199 6.539-7.743 0-14.416-1.882-20.02-5.645-5.605-3.764-9.883-8.975-12.833-15.635-2.952-6.66-4.427-14.214-4.427-22.661 0-11.155 2.112-20.873 6.335-29.16 4.224-8.283 9.733-14.605 16.53-18.963 6.793-4.36 13.874-6.54 21.238-6.54 7.743 0 14.417 1.882 20.021 5.646M36.362 22.76c-8.583 5.117-15.148 12.034-19.696 20.752-4.549 8.718-6.823 18.383-6.823 28.996 0 11.1 2.165 20.982 6.498 29.646 4.331 8.663 10.653 15.459 18.965 20.386 8.311 4.927 18.234 7.392 29.767 7.392 11.642 0 21.754-2.56 30.337-7.676 8.581-5.116 15.147-12.034 19.696-20.752 4.548-8.718 6.822-18.383 6.822-28.996 0-11.1-2.166-20.982-6.497-29.645-4.333-8.664-10.655-15.46-18.966-20.387-8.312-4.927-18.233-7.391-29.767-7.391-11.643 0-21.755 2.559-30.336 7.675M158.803 118.48c-3.574-6.66-5.36-15.162-5.36-25.503 0-1.95.256-3.249.771-3.899.514-.65 1.422-.974 2.721-.974h11.452c2.924 0 4.386-1.003 4.386-3.006 0-.65-.23-1.394-.69-2.233-.46-.84-1.152-1.584-2.072-2.234-.92-.65-2.003-.975-3.248-.975h-9.503c-1.247 0-2.14-.393-2.68-1.177-.542-.786-.813-1.774-.813-2.965V41.727c0-4.82.392-8.529 1.178-11.128.784-2.599 1.91-4.48 3.371-5.645 1.462-1.165 3.492-2.07 6.091-2.72.92-.218 1.597-.543 2.031-.975.432-.435.65-1.003.65-1.706 0-.866-.325-1.462-.975-1.787s-1.706-.488-3.168-.488c-1.299 0-3.033.055-5.198.163-2.383.11-4.359.163-5.929.163h-4.223l-4.468-.163c-3.682-.215-6.714-.325-9.096-.325-1.787 0-2.68.65-2.68 1.95 0 .757.23 1.34.69 1.746.46.406 1.231.771 2.315 1.096 2.652.92 4.574 2.043 5.766 3.371 1.191 1.326 1.962 3.167 2.315 5.523.351 2.355.528 5.997.528 10.925v31.107c0 2.6-.569 4.331-1.706 5.198-1.137.865-3.222 1.3-6.254 1.3-3.248 0-4.873 1.001-4.873 3.005 0 1.3.514 2.585 1.543 3.858 1.028 1.271 2.41 1.91 4.143 1.91h4.142c2.274 0 3.492 1.406 3.655 4.222.433 10.287 2.544 18.951 6.335 25.991 3.79 7.038 8.703 12.291 14.742 15.757 6.037 3.464 12.63 5.198 19.777 5.198 3.032 0 5.536-.475 7.513-1.42 1.976-.95 3.411-2.1 4.304-3.454.894-1.354 1.341-2.68 1.341-3.98 0-1.678-.65-3.14-1.949-4.385-1.3-1.246-3.006-1.868-5.118-1.868-1.408 0-2.572.175-3.492.527-.92.352-1.923.853-3.005 1.503-1.192.758-2.369 1.326-3.533 1.706-1.165.378-2.64.568-4.427.568-7.96 0-13.726-3.33-17.3-9.99"></path><path d="M209.241 118.48c-3.574-6.66-5.36-15.162-5.36-25.503 0-1.95.256-3.249.771-3.899.514-.65 1.422-.974 2.721-.974h11.452c2.924 0 4.386-1.003 4.386-3.006 0-.65-.23-1.394-.69-2.233-.46-.84-1.152-1.584-2.072-2.234-.92-.65-2.003-.975-3.248-.975h-9.503c-1.247 0-2.14-.393-2.68-1.177-.542-.786-.813-1.774-.813-2.965V41.727c0-4.82.392-8.529 1.178-11.128.784-2.599 1.91-4.48 3.371-5.645 1.462-1.165 3.492-2.07 6.091-2.72.92-.218 1.597-.543 2.031-.975.432-.435.65-1.003.65-1.706 0-.866-.325-1.462-.975-1.787s-1.706-.488-3.168-.488c-1.299 0-3.033.055-5.198.163-2.383.11-4.359.163-5.929.163h-4.223l-4.468-.163c-3.682-.215-6.714-.325-9.096-.325-1.787 0-2.68.65-2.68 1.95 0 .757.23 1.34.69 1.746.46.406 1.231.771 2.315 1.096 2.652.92 4.574 2.043 5.766 3.371 1.191 1.326 1.962 3.167 2.315 5.523.351 2.355.528 5.997.528 10.925v31.107c0 2.6-.569 4.331-1.706 5.198-1.137.865-3.222 1.3-6.254 1.3-3.248 0-4.873 1.001-4.873 3.005 0 1.3.514 2.585 1.543 3.858 1.028 1.271 2.41 1.91 4.143 1.91h4.142c2.274 0 3.492 1.406 3.655 4.222.433 10.287 2.544 18.951 6.335 25.991 3.79 7.038 8.703 12.291 14.742 15.757 6.037 3.464 12.63 5.198 19.777 5.198 3.032 0 5.536-.475 7.513-1.42 1.976-.95 3.411-2.1 4.304-3.454.894-1.354 1.341-2.68 1.341-3.98 0-1.678-.65-3.14-1.949-4.385-1.3-1.246-3.006-1.868-5.118-1.868-1.408 0-2.572.175-3.492.527-.92.352-1.923.853-3.005 1.503-1.192.758-2.369 1.326-3.533 1.706-1.165.378-2.64.568-4.427.568-7.96 0-13.726-3.33-17.3-9.99M234.988 53.87c-.542.783-.812 2.07-.812 3.856 0 2.003.378 3.83 1.137 5.483.758 1.651 1.814 2.477 3.168 2.477h31.84c1.406 0 2.367-.406 2.882-1.217.514-.813.771-2.194.771-4.143 0-2.059-.339-3.846-1.015-5.36-.678-1.518-1.827-2.275-3.452-2.275H237.67c-1.247 0-2.14.392-2.68 1.178M353.571 86.317c.866 0 1.57.65 2.112 1.95 1.624 3.3 3.546 7.797 5.766 13.482 1.733 4.386 2.6 8.013 2.6 10.884 0 6.01-3.602 9.016-10.803 9.016-3.41 0-5.957-.813-7.634-2.437-1.68-1.624-2.519-3.9-2.519-6.823 0-2.166.407-4.576 1.22-7.23 1.57-5.143 3.898-10.748 6.984-16.811.703-1.354 1.462-2.031 2.274-2.031m-33.26-68.794c-1.49 1.3-2.91 3.654-4.264 7.066-11.48 28.698-22.228 54.012-32.245 75.942-5.47 11.858-9.99 19.006-13.564 21.442-.975.65-1.679 1.245-2.11 1.787-.435.54-.65 1.137-.65 1.787 0 .758.336 1.367 1.014 1.828.677.459 1.556.69 2.64.69 1.19 0 3.086-.11 5.685-.325 2.6-.217 4.63-.325 6.092-.325h7.635c1.894 0 5.55.134 10.964.406.975.054 2.031.108 3.168.163 1.137.053 2.274.08 3.411.08 1.353 0 2.41-.257 3.168-.771.757-.515 1.137-1.26 1.137-2.233 0-1.572-1.246-2.68-3.736-3.33-4.603-1.138-7.838-2.437-9.706-3.9s-2.802-3.303-2.802-5.522c0-1.68.595-4.17 1.787-7.472 8.284-23.392 17.515-45.864 27.696-67.414.758-1.571 1.49-2.355 2.193-2.355.703 0 1.434.784 2.193 2.355a531.464 531.464 0 0 1 14.457 33.95c.325.813.488 1.57.488 2.275 0 .703-.163 1.407-.488 2.11-2.11 5.253-3.898 9.545-5.36 12.875s-3.358 7.458-5.686 12.386c-4.982 10.505-9.232 17.76-12.752 21.767-.974 1.137-1.46 2.165-1.46 3.087 0 .65.27 1.177.811 1.584.541.406 1.3.609 2.274.609 1.57 0 3.221-.081 4.955-.244 4.601-.272 9.88-.406 15.837-.406l17.138.08c8.88.054 15.404.217 19.574.489l2.843.08c.975 0 1.718-.216 2.234-.65.514-.433.772-.973.772-1.623 0-.975-.488-2.004-1.462-3.087l-1.38-1.543a75.094 75.094 0 0 1-6.824-8.65c-2.112-3.114-4.684-7.892-7.716-14.336a353.4 353.4 0 0 1-9.015-20.955c-.325-.704-.488-1.408-.488-2.111 0-.542.19-1.3.57-2.274a356.072 356.072 0 0 1 16.405-34.682c.813-1.571 1.597-2.356 2.356-2.356.758 0 1.434.785 2.031 2.356l21.686 57.586c1.95 5.143 2.923 9.637 2.923 13.482 0 3.412-.785 6.2-2.355 8.367-1.57 2.165-3.872 3.6-6.904 4.304-2.112.488-3.167 1.543-3.167 3.168 0 .974.378 1.718 1.137 2.233.757.514 1.813.772 3.167.772a36.82 36.82 0 0 0 4.061-.244c3.682-.272 6.823-.406 9.422-.406h5.036c2.22 0 4.818.134 7.796.406 1.246.163 2.465.244 3.657.244.974 0 1.746-.217 2.314-.65.568-.434.852-1.03.852-1.787 0-.65-.176-1.206-.528-1.665-.35-.46-.933-.988-1.746-1.583-1.299-.975-2.586-2.234-3.857-3.777-1.274-1.544-2.884-4.211-4.833-8.001-1.95-3.79-4.197-8.99-6.742-15.594l-27.046-70.42c-1.192-3.195-2.437-5.496-3.736-6.903-1.3-1.407-2.79-2.111-4.468-2.111-1.354 0-2.477.243-3.37.73-.894.488-1.734 1.367-2.518 2.64-.786 1.27-1.665 3.154-2.64 5.645-4.44 11.099-9.503 22.308-15.188 33.625-.65 1.3-1.354 1.95-2.112 1.95-.704 0-1.435-.65-2.193-1.95-2.383-4.547-4.75-9.516-7.107-14.904-2.355-5.388-4.995-11.628-7.919-18.721-1.354-3.25-2.64-5.564-3.858-6.944-1.218-1.381-2.72-2.071-4.508-2.071-1.896 0-3.587.649-5.076 1.949M514.064 19.715c0-1.786-1.436-2.68-4.305-2.68-1.299 0-2.517.028-3.655.08-1.137.056-2.14.11-3.005.163-3.358.218-5.847.326-7.472.326h-4.63c-.54 0-1.734-.054-3.574-.162a95.433 95.433 0 0 0-7.553-.326c-.975 0-1.746.162-2.315.488-.568.325-.853.812-.853 1.462 0 .703.244 1.245.731 1.624s1.407.785 2.762 1.218c2.544.866 4.467 1.976 5.766 3.33 1.3 1.353 2.234 3.302 2.802 5.848.57 2.545.855 6.092.855 10.64V58.62c0 4.278-.773 8.122-2.316 11.534-1.543 3.41-3.695 6.09-6.457 8.04-2.761 1.95-5.902 2.925-9.422 2.925-4.71 0-8.271-1.003-10.68-3.006-2.41-2.003-3.615-5.198-3.615-9.584V41.727c0-4.821.393-8.516 1.178-11.087.785-2.572 1.909-4.441 3.37-5.605 1.463-1.165 3.493-2.152 6.093-2.965.975-.271 1.665-.608 2.07-1.014s.61-.962.61-1.665c0-.867-.324-1.462-.975-1.787-.65-.326-1.705-.488-3.167-.488-1.787 0-3.548.08-5.28.244-.541 0-1.395.04-2.558.122a48.635 48.635 0 0 1-3.371.122h-4.142l-4.548-.162c-3.574-.216-6.607-.326-9.097-.326-1.787 0-2.681.65-2.681 1.95 0 .703.23 1.258.69 1.665.46.406 1.232.797 2.316 1.177 2.706.92 4.657 2.043 5.848 3.37 1.19 1.328 1.962 3.168 2.314 5.524.352 2.355.529 5.997.529 10.925v61.24c-.055 5.793-.38 10.125-.975 12.996-.597 2.869-1.368 4.873-2.315 6.01-.948 1.137-2.532 2.544-4.751 4.223-.704.596-1.206 1.083-1.503 1.462-.298.378-.447.839-.447 1.38 0 1.408 1 2.302 3.005 2.68 2.545.597 4.914 1.423 7.108 2.478 2.192 1.057 4.37 2.504 6.538 4.346.595.487 1.245.88 1.949 1.177.703.298 1.38.447 2.03.447.813 0 1.462-.231 1.95-.69.487-.461.73-1.151.73-2.071 0-.325-.108-1.03-.324-2.112-.597-2.274-1.111-5.66-1.543-10.153-.435-4.495-.651-11.886-.651-22.173V88.754c0-1.138.245-2.004.732-2.6s1.109-.893 1.868-.893c.703 0 1.462.244 2.274.73 2.87 1.733 5.36 2.937 7.472 3.615 2.112.676 4.468 1.015 7.067 1.015 4.819 0 9.109-1.218 12.874-3.655 3.762-2.436 6.672-5.604 8.73-9.502 2.058-3.9 3.087-7.96 3.087-12.184l-.081-11.696c-.11-5.415-.163-9.368-.163-11.857 0-4.711.27-8.258.812-10.641.54-2.383 1.516-4.156 2.924-5.32 1.407-1.164 3.6-2.152 6.579-2.964 1.84-.487 2.762-1.517 2.762-3.087M539.486 109.018c-1.679 1.706-2.518 3.911-2.518 6.62 0 2.544.84 4.615 2.518 6.213 1.678 1.596 3.952 2.396 6.823 2.396 2.87 0 5.144-.8 6.823-2.396 1.677-1.598 2.517-3.669 2.517-6.214 0-2.653-.88-4.846-2.64-6.578-1.759-1.734-3.994-2.6-6.7-2.6-2.87 0-5.145.853-6.823 2.56m7.23-17.504c.594-.65.892-1.543.892-2.68v-2.03l-.162-3.737c-.435-7.094-.649-13.05-.649-17.869l.162-23.473c.052-4.82.473-8.528 1.258-11.127s1.895-4.496 3.331-5.686c1.433-1.19 3.452-2.192 6.05-3.005 1.895-.542 2.843-1.435 2.843-2.68 0-.867-.352-1.462-1.056-1.787s-1.814-.487-3.33-.487c-1.299 0-3.033.108-5.198.324-2.383.218-4.359.325-5.929.325h-4.63l-4.548-.162c-3.683-.215-6.714-.325-9.097-.325-2.11 0-3.167.65-3.167 1.95 0 .757.256 1.34.771 1.745.514.407 1.421.772 2.721 1.097 2.653.813 4.615 1.881 5.89 3.208 1.27 1.326 2.11 3.221 2.516 5.686.407 2.464.61 6.104.61 10.924v16c-.11 4.927-.678 8.637-1.706 11.128-1.03 2.49-2.789 4.25-5.28 5.28-1.57.757-2.355 1.705-2.355 2.842 0 .487.19 1.001.568 1.543.38.541.84.975 1.381 1.3 2.762 1.624 4.941 3.058 6.54 4.304 1.595 1.246 2.963 2.815 4.101 4.711.92 1.353 1.746 2.301 2.476 2.843.732.541 1.638.812 2.722.812.92 0 1.678-.325 2.274-.974M590.25 18.375c-3.196 1.488-5.74 3.777-7.635 6.863-1.896 3.086-2.843 6.931-2.843 11.533 0 4.927.27 11.723.812 20.387.325 6.28.487 9.91.487 10.884 0 2.87-.23 5.021-.69 6.457-.46 1.434-1.368 2.463-2.721 3.086-1.353.622-3.439.935-6.254.935-2.274 0-3.845.121-4.711.365-.866.243-1.299.88-1.299 1.908 0 .704.351 1.327 1.056 1.87.703.54 1.976 1.298 3.818 2.273 3.031 1.624 5.495 3.48 7.39 5.564 1.895 2.083 3.546 4.995 4.955 8.731 1.407 3.736 2.68 8.798 3.818 15.188.214 1.408.621 2.49 1.217 3.25.596.757 1.246 1.136 1.95 1.136.812 0 1.529-.487 2.152-1.462.622-.975.935-2.329.935-4.06V94.925c0-2.274.203-3.912.608-4.914.406-1.002 1.219-1.679 2.437-2.03s3.208-.528 5.97-.528h13.645c2.112 0 3.168-.894 3.168-2.68 0-1.085-.556-2.112-1.665-3.087-1.111-.975-2.587-1.746-4.427-2.315-1.842-.568-3.818-.852-5.929-.852h-8.609c-1.842 0-3.278-.557-4.305-1.666-1.029-1.11-1.544-2.558-1.544-4.345V38.071c0-3.41 1.245-6.038 3.736-7.879 2.491-1.84 5.469-2.76 8.935-2.76 2.327 0 4.169.133 5.522.405 1.354.27 2.681.65 3.981 1.138.649.215 1.082.325 1.3.325.865 0 1.299-.516 1.299-1.544 0-1.624-.678-3.344-2.031-5.157-1.354-1.815-3.236-3.344-5.644-4.589-2.41-1.245-5.158-1.868-8.244-1.868-3.899 0-7.447.745-10.64 2.233M666.638 66.62c2.03.245 3.343.69 3.939 1.34.595.65.894 1.76.894 3.33 0 2.004-.583 3.872-1.746 5.605-1.165 1.733-2.776 3.1-4.833 4.102-2.06 1-4.333 1.502-6.822 1.502-4.604 0-8.3-1.083-11.087-3.248-2.79-2.167-4.67-5.01-5.646-8.528-.108-.65-.162-1.057-.162-1.22 0-.973.46-1.692 1.38-2.151.92-.461 2.207-.76 3.859-.894 1.65-.135 4.102-.203 7.35-.203h2.519c4.873 0 8.325.122 10.355.366M642.88 19.228c-4.982 2.762-9.044 6.944-12.183 12.549-3.141 5.604-4.711 12.494-4.711 20.67 0 7.148 1.407 13.618 4.223 19.413 2.816 5.793 6.687 10.342 11.616 13.645 4.925 3.302 10.422 4.954 16.487 4.954 6.768 0 12.468-1.68 17.096-5.035 4.63-3.36 7.892-8.07 9.789-14.133.377-1.191.73-2.112 1.055-2.761a13.03 13.03 0 0 1 1.137-1.868c.812-1.03 1.219-2.112 1.219-3.25 0-1.03-.394-1.881-1.178-2.558-.786-.678-1.856-1.015-3.21-1.015l-23.553-.082a758.404 758.404 0 0 0-12.426-.081h-3.25c-1.733 0-3.004-.108-3.817-.324-.812-.218-1.408-.664-1.787-1.341-.38-.678-.568-1.746-.568-3.208 0-6.498 1.123-11.858 3.37-16.082s5.184-7.31 8.813-9.26c3.627-1.948 7.554-2.923 11.777-2.923 3.952 0 7.662.988 11.128 2.964 3.464 1.977 6.172 4.536 8.122 7.676.703 1.137 1.488 1.706 2.355 1.706.54 0 .987-.231 1.34-.69.35-.461.528-1.071.528-1.828 0-.542-.081-1.192-.244-1.95-1.084-4.06-2.992-7.541-5.725-10.436-2.736-2.898-5.985-5.105-9.748-6.62a31.353 31.353 0 0 0-11.817-2.274c-5.578 0-10.857 1.38-15.838 4.142M755.21 70.6c-.705.622-1.057 1.475-1.057 2.56 0 .648.285 1.244.854 1.786.568.54 1.366.946 2.395 1.218 2.707.65 4.63 1.34 5.767 2.071 1.138.731 1.909 1.921 2.315 3.573s.609 4.373.609 8.164v18.193c0 3.14-.217 5.468-.65 6.985-.433 1.515-1.232 2.721-2.395 3.615-1.165.893-3.101 1.854-5.808 2.883-1.409.595-2.41 1.137-3.005 1.624-.596.487-.893 1.11-.893 1.868 0 2.003 1.218 3.005 3.654 3.005.541 0 1.733-.054 3.574-.162 2.491-.217 4.657-.325 6.497-.325h9.016c.65 0 1.273-.203 1.868-.609a4.284 4.284 0 0 0 1.381-1.503l10.965-21.929c.325-.705.812-1.056 1.462-1.056s1.138.351 1.462 1.056l9.909 21.523c.378.866.906 1.503 1.584 1.91a4.114 4.114 0 0 0 2.152.608h9.178c1.354 0 3.113.108 5.279.325 1.516.108 2.464.162 2.843.162 2.383 0 3.574-1.002 3.574-3.005 0-.759-.284-1.435-.853-2.03-.569-.597-1.557-1.273-2.964-2.03-2.221-1.138-3.791-2.14-4.711-3.006-.922-.867-1.53-2.085-1.827-3.655-.299-1.57-.447-4.089-.447-7.553V89.972c0-2.925.162-5.09.487-6.498.325-1.409 1.001-2.532 2.03-3.37 1.028-.84 2.707-1.613 5.036-2.316 2.327-.704 3.492-1.84 3.492-3.41 0-1.355-.393-2.384-1.177-3.088-.785-.704-1.856-1.055-3.208-1.055-1.137 0-2.437.081-3.899.243-.596 0-1.503.041-2.72.122a47.57 47.57 0 0 1-3.127.122h-3.33c-1.3 0-2.843-.08-4.63-.244a84.828 84.828 0 0 0-2.478-.162 60.427 60.427 0 0 0-3.289-.08c-1.3 0-2.343.283-3.127.851-.786.57-1.178 1.367-1.178 2.396 0 .596.325 1.164.975 1.706.649.541 1.569.975 2.762 1.3 2.924 1.028 4.913 1.868 5.969 2.518 1.056.65 1.84 1.76 2.356 3.33.514 1.57.771 4.114.771 7.635v19.492c0 2.003-.596 3.006-1.787 3.006-.542 0-.974-.136-1.3-.407-.324-.27-.677-.785-1.055-1.543l-6.904-14.619c-.163-.38-.664-1.45-1.502-3.209-.84-1.76-1.598-2.924-2.275-3.492a3.5 3.5 0 0 0-2.314-.853c-.868 0-1.584.216-2.153.65-.568.433-1.137 1.123-1.706 2.071-.568.947-1.421 2.558-2.558 4.833l-7.067 13.97c-.379.812-.718 1.34-1.014 1.583-.299.244-.691.366-1.178.366-.38 0-.719-.217-1.016-.65-.298-.434-.446-1.11-.446-2.03V89.972c0-3.249.188-5.619.568-7.107.378-1.49 1.164-2.654 2.356-3.493 1.19-.84 3.194-1.557 6.011-2.152 2.273-.597 3.411-1.76 3.411-3.493 0-1.299-.394-2.302-1.178-3.005-.786-.705-1.856-1.056-3.208-1.056-1.192 0-2.654.081-4.387.244-2.815.215-5.063.325-6.741.325h-3.249c-1.517 0-3.573-.11-6.173-.325-1.462-.163-2.708-.244-3.735-.244-1.193 0-2.14.311-2.843.934m-46.621.65c-.65.676-.975 1.53-.975 2.558 0 .758.337 1.462 1.015 2.112.677.65 1.584 1.083 2.722 1.3 2.544.325 4.656 1.38 6.335 3.167 1.677 1.787 2.49 4.982 2.436 9.585l.325 27.128c-.109 1.407-.447 2.381-1.015 2.923-.569.541-1.639.812-3.208.812-1.41 0-2.762-.568-4.062-1.705-1.299-1.137-2.355-2.884-3.167-5.239s-1.219-5.267-1.219-8.73c0-1.193-.379-2.113-1.136-2.763-.759-.65-1.572-.974-2.437-.974-2.274 0-3.412 1.381-3.412 4.142 0 5.793-.162 11.018-.487 15.676l-.162 4.223c0 1.028.256 1.84.771 2.437.514.595 1.232.893 2.152.893.378 0 1.707-.19 3.981-.569 2.273-.379 8.825-.568 19.655-.568 8.772 0 15.134.27 19.087.812.865.108 1.434.163 1.705.163.921 0 1.571-.218 1.949-.65.379-.434.57-1.327.57-2.68l-.163-6.254c-.272-6.878-.407-11.209-.407-12.996 0-1.299-.352-2.274-1.055-2.924-.704-.65-1.572-.974-2.599-.974-2.274 0-3.411 1.326-3.411 3.98 0 5.305-.786 9.082-2.355 11.33-1.572 2.246-3.765 3.37-6.58 3.37-2.329 0-3.492-1.11-3.492-3.33l-.569-27.533c-.054-4.603.703-7.812 2.274-9.625 1.571-1.815 3.575-2.857 6.011-3.127 1.353-.217 2.356-.609 3.005-1.178.649-.568.975-1.259.975-2.07 0-1.03-.366-1.91-1.097-2.64-.731-.732-1.746-1.097-3.046-1.097-1.028 0-2.572.053-4.629.162-2.816.216-5.74.325-8.772.325-2.979 0-5.713-.109-8.204-.325-1.949-.109-3.465-.162-4.547-.162-1.193 0-2.113.337-2.762 1.015"></path></g></svg>