<?xml version="1.0" encoding="UTF-8"?><svg id="Calque_1" xmlns="http://www.w3.org/2000/svg" width="1341.03" height="74.57" viewBox="0 0 1341.03 74.57"><defs><style>.cls-1,.cls-2{fill:#fff;}.cls-2,.cls-3{fill-rule:evenodd;}</style></defs><path id="path2999" class="cls-1" d="M0,.96H60.71V10.34h-25.13v63.29h-10.44V10.34H0"/><g id="g3003"><g id="g3009"><path id="path3011" class="cls-1" d="M137.93,64.98c16.29,0,28.33-11.83,28.33-27.69s-12.04-27.7-28.33-27.7-28.23,11.71-28.23,27.7,12.04,27.69,28.23,27.69m0-64.98c23.96,0,39.09,17.04,39.09,37.29s-14.7,37.28-39.31,37.28-38.76-17.59-38.76-37.28S114.4,0,137.93,0"/></g><g id="g3013"><path id="path3015" class="cls-1" d="M293.75,73.62h-10.44V17.05h-.21l-22.37,28.11h-1.7l-22.36-28.11h-.22v56.57h-10.44V.96h9.8l24.07,29.82L284.06,.96h9.7V73.62Z"/></g><g id="g3017"><path id="path3019" class="cls-1" d="M420.5,73.62h-10.44V17.05h-.21l-22.37,28.11h-1.7l-22.37-28.11h-.21v56.57h-10.44V.96h9.8l24.07,29.82L410.8,.96h9.7V73.62Z"/></g><g id="g3021"><path id="path3023" class="cls-1" d="M517.53,.96h12.57l-26.95,34.3v38.36h-10.44V35.15L465.76,.96h12.57l19.49,25.03L517.53,.96Z"/></g><g id="g3025"><path id="path3027" class="cls-1" d="M812.48,73.62h-10.43v-31.65h-40.7v31.65h-10.44V.96h10.44v31.62h40.7V.96h10.43V73.62Z"/></g><path id="path3029" class="cls-1" d="M866.17,73.62h-10.45V.96h10.45V73.62Z"/><g id="g3031"><path id="path3033" class="cls-1" d="M919.42,64.23h32.81v9.39h-43.24V.96h10.44v63.27Z"/></g><g id="g3035"><path id="path3037" class="cls-1" d="M1020.97,10.34h-28.33V30.47h28.33v9.37h-28.33v33.79h-10.43V.96h38.76V10.34Z"/></g><path id="path3039" class="cls-1" d="M1067.94,73.62h-10.43V.96h10.43V73.62Z"/><g id="g3041"><path id="path3043" class="cls-1" d="M1167.31,68.6c-9.7,4.26-17.56,5.97-27.68,5.97-22.27,0-38.67-15.56-38.67-36.87S1117.79,0,1139.93,0c8.53,0,14.5,1.39,25.89,6.18v10.53c-8.51-4.67-17.36-7.13-26.1-7.13-15.76,0-28,12.03-28,27.8s12.13,27.59,29.39,27.59c5.64,0,10.75-1.28,15.76-2.88v-14.92h-13.97v-9.37h24.4v30.78Z"/></g><g id="g3045"><path id="path3047" class="cls-1" d="M1248.26,10.34h-30.78v21.94h29.71v9.37h-29.71v22.58h31.74v9.4h-42.18V.96h41.22V10.34Z"/></g><g id="g3049"><path id="path3051" class="cls-1" d="M1295.34,32.7h6.7c11.19,0,14.38-5.74,14.28-11.81-.13-6.83-4.16-10.97-14.28-10.97h-6.7v22.79Zm7.87-31.74c14.7,0,23.86,7.78,23.86,20.34,0,8.43-4.36,14.71-12.14,17.79,6.6,4.37,10.66,11.07,16.19,20.13,3.1,5.01,4.9,7.45,9.92,14.4h-12.47l-9.59-14.94c-9.59-14.91-13.96-16.61-19.27-16.61h-4.38v31.55h-10.45V.96h18.31Z"/></g><path id="path3083" class="cls-2" d="M691.78,19.01h-55.86V55.45h55.86V19.01Z"/><path id="path3085" class="cls-3" d="M635.92,19.11h-55.85V55.45h55.85V19.11Z"/><path id="path3087" class="cls-2" d="M580.06,.97h111.72V19.06h-111.72V.97Z"/><path id="path3089" class="cls-2" d="M580.06,55.35h111.72v18.17h-111.72v-18.17Z"/></g></svg>