<svg xmlns:xlink="http://www.w3.org/1999/xlink" xmlns="http://www.w3.org/2000/svg" width="150" height="41" viewBox="0 0 313 87" fill="none">
    <mask id="a" maskUnits="userSpaceOnUse" x="0" y="0" width="49" height="68">
        <path fill-rule="evenodd" clip-rule="evenodd" d="M0 .094h48.666V67.52H0V.094z" fill="#fff"/>
    </mask>
    <g mask="url(#a)">
        <path fill-rule="evenodd" clip-rule="evenodd" d="M30.793 20.427c0-3.5-2.203-5.87-5.773-5.87h-8.627v11.74h8.628c3.57 0 5.773-2.371 5.773-5.87h-.001zm.988 25.683c0-3.582-2.417-6.103-6.114-6.103h-9.274v12.261h9.274c3.697 0 6.114-2.521 6.114-6.158zm7.382-14.193c5.839 3.012 9.503 9.044 9.503 16.402 0 10.925-8.665 19.2-20.103 19.2H0V.094h27.99c10.988 0 19.006 7.295 19.006 17.256a17.48 17.48 0 01-7.835 14.566h.002z" fill="#fff"/>
    </g>
    <path fill-rule="evenodd" clip-rule="evenodd" d="M81.53 53.67c6.088 0 10.454-4.65 10.454-11.394 0-6.703-4.366-11.392-10.453-11.392-6.088 0-10.454 4.648-10.454 11.392 0 6.743 4.366 11.392 10.454 11.392v.001zM54.354 42.273c0-15.812 11.373-27.176 27.177-27.176 15.753 0 27.177 11.364 27.177 27.176 0 15.76-11.424 27.178-27.177 27.178-15.804 0-27.177-11.419-27.177-27.178zM138.904 53.67c6.088 0 10.454-4.65 10.454-11.394 0-6.703-4.366-11.392-10.454-11.392-6.088 0-10.454 4.648-10.454 11.392 0 6.743 4.366 11.392 10.454 11.392v.001zm-27.177-11.396c0-15.812 11.373-27.176 27.177-27.176 15.752 0 27.177 11.364 27.177 27.176 0 15.76-11.425 27.178-27.177 27.178-15.804 0-27.177-11.419-27.177-27.178zM193.24 69.451c-13.043 0-20.969-7.342-21.12-18.394h15.865c0 3.73 2.436 5.447 5.562 5.447 2.411 0 4.696-1.311 4.696-3.947 0-2.943-3.623-3.782-8.22-4.592-7.42-1.283-17.256-3.67-17.256-16.041 0-10.225 8.174-16.826 20.435-16.826 12.185 0 20.083 6.91 20.271 17.246h-15.435c0-3.257-2.055-4.772-5.041-4.772-2.642 0-4.417 1.395-4.417 3.76 0 2.902 3.659 3.578 8.205 4.442 7.559 1.431 17.61 3.106 17.61 16.042 0 10.66-8.44 17.636-21.158 17.636h.003zM253.651 50.924v15.508h-11.072c-10.333 0-16.612-6.949-16.612-18.372V28.664h-8.552v-4.139L238.348 0h3.306v15.029h11.737v13.635H242.06v16.359c0 3.68 2.019 5.901 5.414 5.901h6.177z" fill="#fff"/>
    <mask id="b" maskUnits="userSpaceOnUse" x="256" y="15" width="57" height="72">
        <path fill-rule="evenodd" clip-rule="evenodd" d="M256.822 15.35h55.506v71.368h-55.506V15.35z" fill="#fff"/>
    </mask>
    <g mask="url(#b)">
        <path fill-rule="evenodd" clip-rule="evenodd" d="M313.018 15.35l-20.154 49.7c-6.482 15.918-12.44 21.668-24.856 21.668h-5.672V71.324h4.555c6.337 0 8.248-1.784 10.492-8.257L257.512 15.35h17.999l10.204 28.653 9.51-28.653h17.793z" fill="#fff"/>
    </g>
</svg>