<?xml version="1.0" encoding="UTF-8"?><svg id="Calque_1" xmlns="http://www.w3.org/2000/svg" width="267.89" height="67.28" viewBox="0 0 267.89 67.28"><defs><style>.cls-1{fill:#fff;}</style></defs><path class="cls-1" d="M163.17,19.18c-4.24,0-7.65,1.14-11.18,2.88,.03-10.02,.16-18.75,.4-22.05l-20.58,3.98v1.85l2.01,.26c2.87,.39,3.97,2.07,4.31,5.9,.65,7.34,.55,46.75,0,53.07,5.54,1.24,11.54,2.2,17.55,2.2,16.34,0,26.17-10.09,26.17-26.07,0-12.81-7.98-22.02-18.67-22.02Zm-7.17,44.83c-1.17,0-2.68-.19-3.51-.34-.33-4.43-.52-22.66-.5-38.59,1.89-.64,3.15-.79,4.81-.79,6.76,0,10.56,7.81,10.58,17.66,.02,12.54-4.67,22.06-11.37,22.06ZM54.43,19.66l-3.21,.89c-2.8-9.36-7.26-14.66-15.6-14.66h-10.69c-.5,5.97-.69,15.9-.64,26.25l7.19-.23c4.78-.16,6.78-3.7,7.94-8.96h2.68v21.9h-2.68c-1.15-5.26-3.16-8.8-7.94-8.96l-7.17-.23c.07,7.86,.28,14.55,.62,18.52,.49,5.83,2.07,8.38,6.2,8.99l3.65,.39v2.6H0v-2.6l2.88-.39c4.13-.6,5.72-3.16,6.2-8.99,.8-9.61,.93-29.58,0-40.75-.48-5.84-2.07-8.39-6.2-8.99l-2.88-.39V1.45H54.13l.29,18.2Zm17.3-1c15.38,0,23.03,10.43,23.03,24.19s-8.63,24.43-24.02,24.43-23.04-10.43-23.04-24.19c0-13.43,8.63-24.43,24.03-24.43Zm-.8,2.98c-6.8,0-8.71,9.2-8.71,21.33s3.01,21.33,9.32,21.33c6.8,0,8.7-9.2,8.7-21.33,0-11.8-3.01-21.33-9.32-21.33Zm114.68,21.76c-.02-12.73,8.02-24.71,23.89-24.71,12.91,0,19.06,9.57,19.13,22.08h-28.79c-.32,11.35,5.43,19.69,16.44,19.69,4.84,0,7.45-1.2,10.38-3.44l1.35,1.62c-3.19,4.43-9.85,8.63-18.7,8.63-13.87,0-23.67-9.82-23.69-23.88Zm14.34-5.86l14.43-.31c.07-6.39-.95-15.51-6.14-15.51-5.23,0-8.17,8.64-8.29,15.82Zm65.67-4.55l-2.36,.62c-2.51-8.13-6.32-11.59-11.9-11.59-3.72,0-6.4,2.79-6.4,6.84s3.01,6.14,11.71,9.51c8.04,3.11,11.22,6.69,11.22,13.22,0,9.72-7.45,15.71-19.71,15.71-5.88,0-12.42-1.31-16.26-2.86l-.41-13.46,2.35-.62c3.37,9.41,7.76,12.84,13.56,12.84,4.92,0,7.67-3.5,7.67-7.24s-2.07-5.82-9.92-8.62c-7.29-2.6-12.57-5.81-12.57-13.96s7.01-14.7,18.59-14.7c5.38,0,10.49,.94,13.91,2.51l.52,11.81Zm-135.73-.37c-6.24-4.18-12.94-2.35-14.32-.08-.48,7.53-.36,19.07,.15,24.88,.33,3.83,1.44,5.51,4.32,5.91l3.72,.26v2.61h-28.57v-2.6l2-.26c2.87-.4,3.98-2.08,4.31-5.91,.56-6.32,.64-19.44,0-26.78-.34-3.84-1.44-5.52-4.31-5.91l-2-.26v-1.85l20.51-3.97-.23,10.73c4.79-11.03,14.26-12.49,19.45-9.39l-5.03,12.65Z"/></svg>