<?xml version="1.0" encoding="UTF-8"?><svg id="Calque_1" xmlns="http://www.w3.org/2000/svg" width="188.52" height="134.69" xmlns:xlink="http://www.w3.org/1999/xlink" viewBox="0 0 188.52 134.69"><defs><style>.cls-1{fill:#fff;}</style><symbol id="icon-ifm-logo" viewBox="0 0 188.52 134.69"><path class="cls-1" d="M37.24,107.5v.47c.88,0,1.55,.13,2.02,.4,.4,.2,.74,.54,.88,1.01,.13,.4,.2,1.08,.2,1.89v11.47l-2.97,.67v.4l6.14,1.35v-13.83c0-.88,.07-1.48,.2-1.89,.13-.4,.4-.74,.88-1.01,.4-.2,1.08-.34,2.02-.4v-.54h-9.38Zm7.56,27.19v-6.34h-6.07v6.34h6.07Zm15.38-27.19v.47c.81,0,1.35,.13,1.75,.34,.34,.2,.61,.54,.74,.88s.13,.94,.13,1.69v7.35c0,3.37-1.35,5.06-4.05,5.06-1.35,0-2.63-.34-3.91-1.08v-11.4c0-.74,.07-1.28,.13-1.62,.13-.34,.34-.61,.74-.81,.34-.2,.94-.34,1.75-.34v-.54h-8.91v.47c.88,0,1.55,.13,2.02,.4,.4,.2,.74,.54,.88,1.01,.13,.4,.2,1.08,.2,1.89v11.4l-2.97,.67v.34l6.14,1.35v-2.29c1.75,1.55,3.64,2.29,5.67,2.29,1.75,0,3.17-.54,4.12-1.62,.94-1.08,1.42-2.63,1.42-4.59v-7.76c0-.81,.07-1.35,.2-1.75,.13-.34,.4-.67,.74-.88,.4-.2,1.01-.34,1.89-.47v-.47h-8.7Zm21.52,1.15c-1.21-.94-2.83-1.42-4.93-1.42-1.89,0-3.44,.34-4.59,.94-1.15,.61-1.69,1.48-1.69,2.63,0,.61,.2,1.01,.54,1.42,.34,.34,.81,.54,1.42,.54,.27,0,.61-.07,.88-.13l.88-4.39c.34-.13,.81-.27,1.35-.34s.94-.13,1.28-.13c1.48,0,2.63,.27,3.37,.88s1.15,1.35,1.15,2.29c0,.81-.2,1.42-.67,1.96-.47,.47-1.21,.94-2.23,1.35l-3.85,1.55c-1.08,.4-1.89,1.08-2.5,1.89-.54,.81-.81,1.69-.81,2.63,0,1.42,.54,2.56,1.62,3.44,1.08,.88,2.5,1.35,4.18,1.35s2.9-.27,3.98-.88c1.08-.54,1.62-1.35,1.62-2.43,0-.47-.13-.88-.4-1.21s-.74-.54-1.35-.54c-.27,0-.54,.07-.88,.13l-.67,3.98c-.47,.27-1.21,.34-2.29,.34-1.15,0-2.02-.27-2.63-.81-.67-.54-.94-1.21-.94-2.09,0-.81,.2-1.42,.61-1.89,.4-.47,1.08-.88,2.02-1.28l3.04-1.08c1.55-.61,2.7-1.35,3.37-2.16s1.01-1.82,1.01-2.9c-.07-1.55-.67-2.7-1.89-3.64Zm12.95-1.08c-.67-.27-1.35-.4-2.16-.4-1.62,0-2.83,.4-3.78,1.35-.88,.88-1.35,2.09-1.35,3.58v11.81h-2.36v.67c1.48,.13,2.63,.61,3.37,1.42,.74,.81,1.28,2.02,1.55,3.64h.61v-4.86h5.74v-.88h-5.74v-12.21c0-1.15,.27-1.96,.74-2.5,.47-.54,1.28-.81,2.36-.81,.88,0,1.75,.27,2.56,.81l.27-.4c-.54-.54-1.15-.94-1.82-1.21Zm3.64-.07v.47c.88,0,1.55,.13,2.02,.4,.47,.2,.74,.54,.81,1.01,.13,.4,.2,1.08,.2,1.89v11.47l-2.97,.67v.4l6.21,1.35v-13.83c0-.88,.07-1.48,.2-1.89s.4-.74,.81-1.01c.47-.2,1.08-.34,2.02-.4v-.54s-9.31,0-9.31,0Zm7.56,27.19v-6.34h-6.07v6.34h6.07Zm11.61-27.12c-.67-.27-1.35-.4-2.16-.4-1.62,0-2.83,.4-3.78,1.35-.88,.88-1.35,2.09-1.35,3.58v11.81h-2.29v.67c1.48,.13,2.63,.61,3.37,1.42,.74,.81,1.28,2.02,1.55,3.64h.61v-4.86h5.74v-.88h-5.74v-12.21c0-1.15,.27-1.96,.74-2.5,.47-.54,1.28-.81,2.36-.81,.88,0,1.75,.27,2.56,.81l.27-.4c-.61-.54-1.21-.94-1.89-1.21Zm20.85,3.17c.13-.47,.47-.81,.88-1.08,.4-.2,1.08-.34,1.96-.4v-.47l-6.07-1.62-.13,2.63c-.81-.81-1.69-1.42-2.63-1.89s-2.02-.74-3.04-.74c-1.75,0-3.1,.54-4.05,1.55-1.01,1.01-1.48,2.43-1.48,4.25v10.26l-2.77,1.08v.4l6,.34v-11.47c0-3.1,1.35-4.72,4.05-4.72,1.42,0,2.77,.47,3.98,1.42v12.95l-2.97,1.08v.4l6.14,.34v-12.41c-.07-.81,0-1.42,.13-1.89Zm12.89-3.17c-.67-.27-1.35-.4-2.16-.4-1.62,0-2.83,.4-3.78,1.35-.88,.88-1.35,2.09-1.35,3.58v11.81h-2.29v.67c1.48,.13,2.63,.61,3.37,1.42,.74,.81,1.28,2.02,1.55,3.64h.61v-4.86h5.74v-.88h-5.74v-12.21c0-1.15,.27-1.96,.74-2.5,.47-.54,1.28-.81,2.36-.81,.88,0,1.75,.27,2.56,.81l.27-.4c-.61-.54-1.28-.94-1.89-1.21ZM6.88,75.92c0-.88,.07-1.62,.27-2.09,.2-.47,.54-.81,1.15-1.08s1.55-.4,2.77-.47v-.54H0v.54c1.01,.07,1.75,.2,2.23,.47,.47,.27,.74,.61,.88,1.08s.2,1.15,.2,2.09v19.03c0,.94-.07,1.62-.2,2.09-.13,.4-.4,.74-.88,.94-.47,.2-1.21,.34-2.23,.4v.54H21.05l1.21-7.35h-.54c-.67,2.16-1.75,3.85-3.17,4.93-1.42,1.15-3.37,1.69-5.87,1.69H6.88v-12.08h3.31c1.15,0,2.02,.13,2.7,.34s1.15,.54,1.48,1.01,.61,1.15,.74,1.96l.13,.88h.47v-9.04h-.47l-.2,.94c-.2,.88-.47,1.55-.74,2.02-.34,.47-.81,.74-1.42,.94s-1.48,.27-2.63,.27h-3.31v-9.51h-.07Zm25.98,8.3c-.4,.2-1.01,.27-1.82,.27h-.88v-8.57c0-.88,.07-1.62,.27-2.09,.13-.47,.54-.81,1.08-1.08s1.35-.4,2.5-.47v-.54h-10.73v.54c1.01,.07,1.75,.2,2.23,.47,.47,.27,.74,.61,.88,1.08s.2,1.15,.2,2.09v19.03c0,.94-.07,1.62-.2,2.09-.13,.4-.4,.74-.88,.94-.47,.2-1.21,.34-2.23,.4v.54h10.59c2.9,0,5.2-.61,6.88-1.75,1.69-1.15,2.5-2.7,2.5-4.72,0-1.62-.54-2.97-1.55-4.12-1.08-1.15-2.7-2.09-4.86-2.97l8.16-10.32c.74-.94,1.48-1.69,2.09-2.23,.67-.54,1.35-.81,2.09-.94v-.34c-.74-.07-1.42-.13-1.96-.13-1.21,0-2.29,.2-3.17,.54-.88,.34-1.69,.94-2.5,1.69s-1.75,1.89-2.97,3.44l-4.59,5.94c-.34,.61-.74,1.01-1.15,1.21Zm-.4,1.01c4.79,0,7.22,2.16,7.22,6.41,0,2.09-.61,3.71-1.82,4.86s-2.7,1.69-4.52,1.69h-3.17v-12.95h2.29Zm40.01-8.37c.61-1.55,1.15-2.7,1.69-3.37s1.35-1.08,2.36-1.28v-.47h-9.11v.54c.74,.13,1.28,.27,1.62,.47,.34,.2,.47,.54,.47,.94,0,.61-.2,1.35-.54,2.16l-2.5,6.54h-9.04l-1.62-4.32c-.61-1.55-.94-2.77-.94-3.64,0-.61,.2-1.08,.67-1.42s1.28-.61,2.5-.74v-.54h-7.69v.54c1.08,.13,1.89,.54,2.43,1.21,.54,.61,1.08,1.55,1.55,2.83l7.22,18.96-1.69,3.64h3.85s8.77-22.06,8.77-22.06Zm-6.27,6.21l-4.25,11.2-4.25-11.2h8.5Zm16.26-5.06c0-1.55,.13-2.7,.34-3.51,.27-.81,.67-1.35,1.21-1.69s1.35-.54,2.43-.61v-.47h-8.5v.47c.94,.07,1.69,.27,2.23,.61s.88,.88,1.15,1.69c.27,.81,.34,1.96,.34,3.51v16.8l-4.05,4.05h5.53l19.5-21.05v14.84c0,1.55-.13,2.7-.34,3.51-.27,.81-.67,1.35-1.21,1.69s-1.35,.54-2.43,.61v.47h8.57v-.47c-.94-.07-1.69-.27-2.23-.61s-.88-.88-1.15-1.69-.34-1.96-.34-3.51v-21.25l-20.98,22.81v-16.19h-.07Zm44.6-4.99c-1.62-.94-3.44-1.42-5.47-1.55l1.75-2.02-9.24-7.62-2.16,2.7,8.1,6.88c-2.23,.13-4.32,.81-6.14,2.02-1.82,1.21-3.31,2.83-4.39,4.93-1.08,2.09-1.62,4.45-1.62,7.08s.54,4.86,1.62,6.95c1.08,2.09,2.63,3.78,4.59,4.99,1.96,1.28,4.25,1.89,6.75,1.89,1.62,0,3.1-.2,4.45-.61,1.35-.4,2.43-1.01,3.24-1.82s1.21-1.69,1.21-2.7c0-.74-.2-1.35-.61-1.82-.4-.47-1.08-.67-2.02-.67-.34,0-.74,.07-1.21,.13l-.81,6.07c-1.01,.47-2.36,.74-3.98,.74-2.23,0-4.05-.47-5.6-1.42-1.55-.94-2.7-2.23-3.51-3.91-.81-1.62-1.21-3.51-1.21-5.53,0-2.77,.54-5.26,1.62-7.35,1.08-2.09,2.56-3.71,4.39-4.86s3.85-1.69,6.07-1.69c1.62,0,3.1,.27,4.32,.81s2.56,1.42,3.91,2.63l.4-.4c-1.28-1.69-2.83-2.97-4.45-3.85h0Zm26.25,3.85c.61-1.55,1.15-2.7,1.69-3.37s1.35-1.08,2.36-1.28v-.47h-9.11v.54c.74,.13,1.28,.27,1.62,.47,.34,.2,.47,.54,.47,.94,0,.61-.2,1.35-.54,2.16l-2.5,6.54h-9.11l-1.62-4.32c-.61-1.55-.94-2.77-.94-3.64,0-.61,.2-1.08,.67-1.42s1.28-.61,2.5-.74v-.54h-7.62v.54c1.08,.13,1.89,.54,2.43,1.21,.54,.61,1.08,1.55,1.55,2.83l7.15,18.96-1.69,3.64h3.85l8.84-22.06h0Zm-6.27,6.21l-4.25,11.2-4.25-11.2h8.5Zm18.89-9.24c.13-.47,.47-.81,.94-1.08s1.21-.4,2.23-.47v-.54h-10.26v.54c1.01,.07,1.75,.2,2.23,.47,.47,.27,.74,.61,.88,1.08s.2,1.15,.2,2.09v19.09c0,.88-.07,1.55-.2,2.02-.13,.4-.4,.74-.88,.94-.47,.2-1.21,.34-2.23,.4v.54h10.26v-.54c-1.01-.07-1.82-.2-2.29-.4s-.74-.54-.88-.94c-.13-.4-.2-1.08-.2-2.02v-19.09c0-.94,.07-1.62,.2-2.09Zm8.37-1.69c-1.35,.47-2.29,1.15-3.04,2.02-.67,.81-1.01,1.75-1.01,2.83,0,.74,.27,1.35,.74,1.89,.47,.54,1.15,.81,2.02,.81,.34,0,.81-.07,1.28-.13l.61-6.54c1.21-.61,2.63-.88,4.25-.88,2.09,0,3.78,.47,4.93,1.42,1.15,.94,1.75,2.23,1.75,3.78,0,1.35-.4,2.43-1.15,3.37-.74,.88-1.89,1.69-3.51,2.43l-5.2,2.36c-1.55,.67-2.7,1.55-3.51,2.7-.81,1.15-1.15,2.43-1.15,3.85s.34,2.63,1.08,3.78c.74,1.08,1.69,1.96,2.97,2.56s2.56,.94,4.05,.94c2.43,0,4.39-.47,5.8-1.35s2.16-2.09,2.16-3.58c0-.74-.2-1.28-.61-1.75-.4-.47-1.08-.67-1.96-.67-.4,0-.81,.07-1.21,.13l-.74,5.94c-.81,.4-1.96,.61-3.51,.61s-2.9-.47-3.98-1.42c-1.01-.94-1.55-2.09-1.55-3.51,0-1.21,.34-2.23,1.08-2.97,.67-.81,1.82-1.48,3.24-2.09l4.18-1.75c2.16-.94,3.71-2.09,4.72-3.44,.94-1.35,1.48-2.9,1.48-4.72,0-2.23-.88-3.98-2.56-5.26s-3.98-1.96-6.81-1.96c-2.02-.13-3.58,.13-4.86,.61h0ZM76.78,39.22c.13-.47,.47-.81,.88-1.08,.4-.2,1.08-.34,1.96-.4v-.47l-6.07-1.62-.13,2.56c-1.75-1.69-3.71-2.56-5.8-2.56-1.35,0-2.63,.34-3.78,1.01s-2.02,1.69-2.63,2.97c-.67,1.28-.94,2.83-.94,4.59,0,1.89,.4,3.51,1.21,4.93,.81,1.42,1.89,2.5,3.17,3.24,1.35,.74,2.77,1.15,4.39,1.15,1.75,0,3.17-.27,4.32-.88v9.99l-2.97,1.21v.4l6.14,.34v-23.48c.07-.81,.13-1.42,.27-1.89Zm-11.67,.34c1.08-1.42,2.56-2.16,4.32-2.16,.74,0,1.48,.07,2.02,.27,.61,.2,1.21,.54,1.82,1.01v8.97c0,1.75-.4,3.04-1.21,3.91-.81,.88-1.82,1.28-3.1,1.28-1.69,0-3.04-.67-4.05-1.96s-1.55-3.1-1.55-5.47c.13-2.43,.67-4.39,1.75-5.87Zm18.96,5.94c0-2.56,.61-4.59,1.82-6.07s2.9-2.23,5.06-2.23c1.62,0,3.17,.34,4.59,1.08l.2-.4c-.88-.61-1.89-1.15-2.97-1.55-1.08-.4-2.29-.61-3.51-.61-1.62,0-3.04,.34-4.25,1.08-1.28,.67-2.23,1.69-2.97,3.04s-1.08,2.83-1.08,4.66,.34,3.31,1.08,4.72,1.69,2.5,2.9,3.24c1.21,.74,2.56,1.15,4.12,1.15,2.23,0,3.98-.54,5.2-1.69,1.21-1.08,1.82-2.63,1.82-4.45v-1.01h-12.01s0-.94,0-.94Zm8.77,2.9c0,1.42-.34,2.56-1.01,3.37s-1.62,1.21-2.77,1.21c-1.35,0-2.5-.47-3.31-1.48s-1.35-2.43-1.55-4.39h8.7v1.28h-.07Zm10.53-12.41v.47c.88,0,1.55,.13,2.02,.4,.47,.2,.74,.54,.88,1.01,.13,.4,.2,1.08,.2,1.89v22.87l-2.97,1.21v.4l6.21,.34v-24.83c0-.88,.07-1.48,.2-1.89s.4-.74,.81-1.01c.47-.2,1.08-.34,2.02-.4v-.47h-9.38Zm18.55,.2c-.81-.34-1.69-.54-2.56-.54-1.42,0-2.56,.4-3.44,1.15-.88,.74-1.35,1.75-1.35,2.9,0,1.35,.54,2.43,1.55,3.24,1.01,.88,2.63,1.48,4.79,1.96l3.31,.74v3.78c0,1.08-.27,1.96-.88,2.56-.61,.61-1.48,.94-2.56,.94-.88,0-1.69-.2-2.43-.54l.2-3.71c-.4-.61-.94-.88-1.62-.88-.47,0-.88,.13-1.15,.47-.27,.27-.4,.67-.4,1.21s.13,1.01,.34,1.48c.2,.4,.61,.88,1.15,1.28,1.08,.88,2.43,1.28,4.05,1.28,2.09,0,3.71-.47,4.86-1.48s1.69-2.36,1.69-4.12v-8.91c0-.61,.13-1.08,.34-1.48s.61-.54,1.08-.54c.4,0,.81,.13,1.35,.34v-.34c-.54-.47-1.08-.74-1.55-1.01-.54-.2-1.15-.34-1.82-.34-1.48,0-2.36,.67-2.56,2.09-.74-.67-1.55-1.21-2.36-1.55h0Zm.2,8.43c-1.62-.4-2.77-1.01-3.51-1.75s-1.08-1.69-1.08-2.83c0-.94,.27-1.69,.81-2.23s1.35-.81,2.36-.81c1.21,0,2.36,.4,3.44,1.21v6.88l-2.02-.47ZM44.67,27.41l11.54-16.53,8.3,16.53h6.81v-.54c-1.01-.07-1.82-.2-2.29-.4-.47-.2-.74-.54-.88-.94-.13-.4-.2-1.08-.2-2.02V4.4c0-.88,.07-1.62,.2-2.02,.13-.47,.47-.81,.94-1.08,.47-.27,1.21-.4,2.23-.47V.29h-10.39V.83c1.01,.07,1.75,.2,2.23,.47,.47,.27,.74,.61,.88,1.08,.13,.47,.2,1.15,.2,2.09V25.73L54.58,6.5l-10.32,15.11V6.56c0-1.55,.13-2.7,.34-3.51,.27-.81,.67-1.35,1.21-1.69s1.35-.54,2.43-.61V.29h-8.37v.47c.94,.07,1.69,.27,2.23,.61,.54,.34,.88,.88,1.15,1.69,.27,.81,.34,1.96,.34,3.51v15.92l-3.44,4.99h4.52v-.07ZM78.81,1.71c-2.09,1.21-3.71,2.9-4.86,5.06s-1.75,4.52-1.75,7.22c0,2.9,.61,5.4,1.89,7.49,1.21,2.09,2.83,3.64,4.86,4.72,1.96,1.01,4.12,1.55,6.34,1.55,2.63,0,5.06-.61,7.15-1.82s3.71-2.9,4.86-4.99c1.15-2.16,1.75-4.52,1.75-7.15,0-2.9-.61-5.4-1.82-7.49s-2.83-3.64-4.79-4.72C90.48,.49,88.39,.02,86.16,.02c-2.83-.13-5.26,.47-7.35,1.69Zm15.11,2.23c1.48,1.69,2.16,3.98,2.16,6.75,0,2.56-.61,5.06-1.75,7.42-1.15,2.43-2.7,4.32-4.72,5.87-1.96,1.48-4.12,2.23-6.48,2.23-2.56,0-4.59-.88-6.07-2.56-1.48-1.75-2.23-3.98-2.23-6.75,0-2.56,.61-5.06,1.75-7.42s2.77-4.32,4.72-5.8c1.96-1.48,4.12-2.23,6.48-2.23,2.7-.07,4.66,.81,6.14,2.5h0Zm8.16-2.7c.47,.27,.74,.61,.88,1.08,.13,.47,.2,1.15,.2,2.09V23.43c0,.94-.07,1.62-.2,2.02-.13,.47-.4,.74-.88,.94-.47,.2-1.21,.34-2.23,.4v.54h10.26c2.9,0,5.53-.47,7.89-1.35,2.36-.94,4.25-2.36,5.6-4.39,1.42-2.02,2.09-4.52,2.09-7.62s-.67-5.53-2.02-7.62-3.17-3.64-5.47-4.66c-2.29-1.01-4.86-1.55-7.76-1.55h-10.59V.69c1.08,.13,1.82,.27,2.23,.54h0Zm5.47,.47c.54-.54,1.48-.74,2.9-.74,3.71,0,6.54,1.08,8.5,3.24,1.96,2.16,2.97,5.33,2.97,9.58s-1.08,7.49-3.17,9.72c-2.09,2.23-5.06,3.31-8.91,3.31h-3.1V4.47c.07-1.42,.34-2.29,.81-2.77h0ZM147.36,.22h-20.65V.76c1.01,.07,1.75,.2,2.23,.47s.74,.61,.88,1.08c.13,.47,.2,1.15,.2,2.09V23.43c0,.94-.07,1.62-.2,2.02-.13,.47-.4,.74-.88,.94-.47,.2-1.21,.34-2.23,.4v.54h20.24l.88-6.81h-.54c-.74,2.16-1.62,3.71-2.77,4.66-1.15,.94-2.7,1.48-4.72,1.48h-6.21V14.59h3.71c1.15,0,2.02,.13,2.7,.34s1.15,.54,1.48,1.01,.61,1.15,.74,1.96l.13,.88h.47V9.73h-.47l-.2,.94c-.2,.88-.47,1.55-.74,2.02-.34,.47-.81,.74-1.42,.94-.61,.2-1.48,.27-2.63,.27h-3.78V4.34c0-1.28,.2-2.16,.61-2.63s1.28-.74,2.5-.74h2.9c2.23,0,4.05,.47,5.47,1.42,1.42,.94,2.56,2.43,3.51,4.52h.61l-1.82-6.68h0Z"/></symbol></defs><use width="188.52" height="134.69" transform="translate(0 134.69) scale(1 -1)" xlink:href="#icon-ifm-logo"/></svg>