<svg xmlns:xlink="http://www.w3.org/1999/xlink" xmlns="http://www.w3.org/2000/svg" class="o-icon c-footer__logo--desktop" title="Institut Français de la mode" width="190" height="136"><defs><symbol id="icon-ifm-logo" viewBox="0 0 281.6 201"><title>ifm-logo</title><path d="M56.3 41v-.7c1.3 0 2.3-.2 3-.6.6-.3 1.1-.8 1.3-1.5.2-.6.3-1.6.3-2.8v-17l-4.4-1v-.6l9.1-2v20.5c0 1.3.1 2.2.3 2.8.2.6.6 1.1 1.3 1.5.6.3 1.6.5 3 .6v.8H56.3zM67.5.7v9.4h-9V.7h9zM90.3 41v-.7c1.2 0 2-.2 2.6-.5.5-.3.9-.8 1.1-1.3.2-.5.2-1.4.2-2.5V25.1c0-5-2-7.5-6-7.5-2 0-3.9.5-5.8 1.6v16.9c0 1.1.1 1.9.2 2.4.2.5.5.9 1.1 1.2.5.3 1.4.5 2.6.5v.8H73.1v-.7c1.3 0 2.3-.2 3-.6.6-.3 1.1-.8 1.3-1.5.2-.6.3-1.6.3-2.8V18.5l-4.4-1V17l9.1-2v3.4c2.6-2.3 5.4-3.4 8.4-3.4 2.6 0 4.7.8 6.1 2.4 1.4 1.6 2.1 3.9 2.1 6.8v11.5c0 1.2.1 2 .3 2.6.2.5.6 1 1.1 1.3.6.3 1.5.5 2.8.7v.7H90.3zm31.9-1.7c-1.8 1.4-4.2 2.1-7.3 2.1-2.8 0-5.1-.5-6.8-1.4-1.7-.9-2.5-2.2-2.5-3.9 0-.9.3-1.5.8-2.1.5-.5 1.2-.8 2.1-.8.4 0 .9.1 1.3.2l1.3 6.5c.5.2 1.2.4 2 .5.8.1 1.4.2 1.9.2 2.2 0 3.9-.4 5-1.3s1.7-2 1.7-3.4c0-1.2-.3-2.1-1-2.9-.7-.7-1.8-1.4-3.3-2l-5.7-2.3c-1.6-.6-2.8-1.6-3.7-2.8-.8-1.2-1.2-2.5-1.2-3.9 0-2.1.8-3.8 2.4-5.1 1.6-1.3 3.7-2 6.2-2 2.4 0 4.3.4 5.9 1.3 1.6.8 2.4 2 2.4 3.6 0 .7-.2 1.3-.6 1.8-.4.5-1.1.8-2 .8-.4 0-.8-.1-1.3-.2l-1-5.9c-.7-.4-1.8-.5-3.4-.5-1.7 0-3 .4-3.9 1.2-1 .8-1.4 1.8-1.4 3.1 0 1.2.3 2.1.9 2.8.6.7 1.6 1.3 3 1.9l4.5 1.6c2.3.9 4 2 5 3.2 1 1.2 1.5 2.7 1.5 4.3-.1 2.3-1 4-2.8 5.4zm19.2 1.6c-1 .4-2 .6-3.2.6-2.4 0-4.2-.6-5.6-2-1.3-1.3-2-3.1-2-5.3V16.7h-3.5v-1c2.2-.2 3.9-.9 5-2.1 1.1-1.2 1.9-3 2.3-5.4h.9v7.2h8.5v1.3h-8.5v18.1c0 1.7.4 2.9 1.1 3.7.7.8 1.9 1.2 3.5 1.2 1.3 0 2.6-.4 3.8-1.2l.4.6c-.8.8-1.7 1.4-2.7 1.8zm5.4.1v-.7c1.3 0 2.3-.2 3-.6.7-.3 1.1-.8 1.2-1.5.2-.6.3-1.6.3-2.8v-17l-4.4-1v-.6l9.2-2v20.5c0 1.3.1 2.2.3 2.8.2.6.6 1.1 1.2 1.5.7.3 1.6.5 3 .6v.8h-13.8zM158 .7v9.4h-9V.7h9zm17.2 40.2c-1 .4-2 .6-3.2.6-2.4 0-4.2-.6-5.6-2-1.3-1.3-2-3.1-2-5.3V16.7H161v-1c2.2-.2 3.9-.9 5-2.1 1.1-1.2 1.9-3 2.3-5.4h.9v7.2h8.5v1.3h-8.5v18.1c0 1.7.4 2.9 1.1 3.7.7.8 1.9 1.2 3.5 1.2 1.3 0 2.6-.4 3.8-1.2l.4.6c-.9.8-1.8 1.4-2.8 1.8zm30.9-4.7c.2.7.7 1.2 1.3 1.6.6.3 1.6.5 2.9.6v.7l-9 2.4-.2-3.9c-1.2 1.2-2.5 2.1-3.9 2.8-1.4.7-3 1.1-4.5 1.1-2.6 0-4.6-.8-6-2.3-1.5-1.5-2.2-3.6-2.2-6.3V17.7l-4.1-1.6v-.6l8.9-.5v17c0 4.6 2 7 6 7 2.1 0 4.1-.7 5.9-2.1V17.7l-4.4-1.6v-.6l9.1-.5v18.4c-.1 1.2 0 2.1.2 2.8zm19.1 4.7c-1 .4-2 .6-3.2.6-2.4 0-4.2-.6-5.6-2-1.3-1.3-2-3.1-2-5.3V16.7H211v-1c2.2-.2 3.9-.9 5-2.1 1.1-1.2 1.9-3 2.3-5.4h.9v7.2h8.5v1.3h-8.5v18.1c0 1.7.4 2.9 1.1 3.7.7.8 1.9 1.2 3.5 1.2 1.3 0 2.6-.4 3.8-1.2l.4.6c-.9.8-1.9 1.4-2.8 1.8zM11.3 87.8c0 1.3.1 2.4.4 3.1.3.7.8 1.2 1.7 1.6.9.4 2.3.6 4.1.7v.8H1.1v-.8c1.5-.1 2.6-.3 3.3-.7.7-.4 1.1-.9 1.3-1.6.2-.7.3-1.7.3-3.1V59.6c0-1.4-.1-2.4-.3-3.1-.2-.6-.6-1.1-1.3-1.4-.7-.3-1.8-.5-3.3-.6v-.8h31.2l1.8 10.9h-.8c-1-3.2-2.6-5.7-4.7-7.3-2.1-1.7-5-2.5-8.7-2.5h-8.6v17.9h4.9c1.7 0 3-.2 4-.5s1.7-.8 2.2-1.5c.5-.7.9-1.7 1.1-2.9l.2-1.3h.7v13.4h-.7l-.3-1.4c-.3-1.3-.7-2.3-1.1-3-.5-.7-1.2-1.1-2.1-1.4-.9-.3-2.2-.4-3.9-.4h-4.9v14.1zm38.5-12.3c-.6-.3-1.5-.4-2.7-.4h-1.3v12.7c0 1.3.1 2.4.4 3.1.2.7.8 1.2 1.6 1.6.8.4 2 .6 3.7.7v.8H35.6v-.8c1.5-.1 2.6-.3 3.3-.7.7-.4 1.1-.9 1.3-1.6.2-.7.3-1.7.3-3.1V59.6c0-1.4-.1-2.4-.3-3.1-.2-.6-.6-1.1-1.3-1.4-.7-.3-1.8-.5-3.3-.6v-.8h15.7c4.3 0 7.7.9 10.2 2.6 2.5 1.7 3.7 4 3.7 7 0 2.4-.8 4.4-2.3 6.1-1.6 1.7-4 3.1-7.2 4.4l12.1 15.3c1.1 1.4 2.2 2.5 3.1 3.3 1 .8 2 1.2 3.1 1.4v.5c-1.1.1-2.1.2-2.9.2-1.8 0-3.4-.3-4.7-.8-1.3-.5-2.5-1.4-3.7-2.5-1.2-1.1-2.6-2.8-4.4-5.1l-6.8-8.8c-.5-.9-1.1-1.5-1.7-1.8zm-.6-1.5c7.1 0 10.7-3.2 10.7-9.5 0-3.1-.9-5.5-2.7-7.2-1.8-1.7-4-2.5-6.7-2.5h-4.7V74h3.4zm59.3 12.4c.9 2.3 1.7 4 2.5 5s2 1.6 3.5 1.9v.7H101v-.8c1.1-.2 1.9-.4 2.4-.7.5-.3.7-.8.7-1.4 0-.9-.3-2-.8-3.2l-3.7-9.7H86.2l-2.4 6.4c-.9 2.3-1.4 4.1-1.4 5.4 0 .9.3 1.6 1 2.1s1.9.9 3.7 1.1v.8H75.7v-.8c1.6-.2 2.8-.8 3.6-1.8.8-.9 1.6-2.3 2.3-4.2l10.7-28.1-2.5-5.4h5.7l13 32.7zm-9.3-9.2l-6.3-16.6-6.3 16.6h12.6zm24.1 7.5c0 2.3.2 4 .5 5.2.4 1.2 1 2 1.8 2.5s2 .8 3.6.9v.7h-12.6v-.7c1.4-.1 2.5-.4 3.3-.9.8-.5 1.3-1.3 1.7-2.5.4-1.2.5-2.9.5-5.2V59.8l-6-6h8.2L153.2 85V63c0-2.3-.2-4-.5-5.2-.4-1.2-1-2-1.8-2.5s-2-.8-3.6-.9v-.7H160v.7c-1.4.1-2.5.4-3.3.9-.8.5-1.3 1.3-1.7 2.5-.4 1.2-.5 2.9-.5 5.2v31.5l-31.1-33.8v24zm66.1 7.4c-2.4 1.4-5.1 2.1-8.1 2.3l2.6 3-13.7 11.3-3.2-4 12-10.2c-3.3-.2-6.4-1.2-9.1-3-2.7-1.8-4.9-4.2-6.5-7.3-1.6-3.1-2.4-6.6-2.4-10.5 0-3.7.8-7.2 2.4-10.3 1.6-3.1 3.9-5.6 6.8-7.4 2.9-1.9 6.3-2.8 10-2.8 2.4 0 4.6.3 6.6.9 2 .6 3.6 1.5 4.8 2.7 1.2 1.2 1.8 2.5 1.8 4 0 1.1-.3 2-.9 2.7-.6.7-1.6 1-3 1-.5 0-1.1-.1-1.8-.2l-1.2-9c-1.5-.7-3.5-1.1-5.9-1.1-3.3 0-6 .7-8.3 2.1-2.3 1.4-4 3.3-5.2 5.8-1.2 2.4-1.8 5.2-1.8 8.2 0 4.1.8 7.8 2.4 10.9 1.6 3.1 3.8 5.5 6.5 7.2 2.7 1.7 5.7 2.5 9 2.5 2.4 0 4.6-.4 6.4-1.2s3.8-2.1 5.8-3.9l.6.6c-1.9 2.5-4.2 4.4-6.6 5.7zm38.9-5.7c.9 2.3 1.7 4 2.5 5s2 1.6 3.5 1.9v.7h-13.5v-.8c1.1-.2 1.9-.4 2.4-.7.5-.3.7-.8.7-1.4 0-.9-.3-2-.8-3.2l-3.7-9.7h-13.5l-2.4 6.4c-.9 2.3-1.4 4.1-1.4 5.4 0 .9.3 1.6 1 2.1s1.9.9 3.7 1.1v.8h-11.3v-.8c1.6-.2 2.8-.8 3.6-1.8.8-.9 1.6-2.3 2.3-4.2L212 59.1l-2.5-5.4h5.7l13.1 32.7zm-9.3-9.2l-6.3-16.6-6.3 16.6H219zm28 13.7c.2.7.7 1.2 1.4 1.6.7.4 1.8.6 3.3.7v.8h-15.2v-.8c1.5-.1 2.6-.3 3.3-.7.7-.4 1.1-.9 1.3-1.6.2-.7.3-1.7.3-3.1V59.5c0-1.3-.1-2.3-.3-3-.2-.6-.6-1.1-1.3-1.4-.7-.3-1.8-.5-3.3-.6v-.8h15.2v.8c-1.5.1-2.7.3-3.4.6-.7.3-1.1.8-1.3 1.4-.2.6-.3 1.6-.3 3v28.3c0 1.4.1 2.4.3 3.1zm12.4 2.5c-2-.7-3.4-1.7-4.5-3-1-1.2-1.5-2.6-1.5-4.2 0-1.1.4-2 1.1-2.8.7-.8 1.7-1.2 3-1.2.5 0 1.2.1 1.9.2l.9 9.7c1.8.9 3.9 1.3 6.3 1.3 3.1 0 5.6-.7 7.3-2.1 1.7-1.4 2.6-3.3 2.6-5.6 0-2-.6-3.6-1.7-5-1.1-1.3-2.8-2.5-5.2-3.6l-7.7-3.5c-2.3-1-4-2.3-5.2-4-1.2-1.7-1.7-3.6-1.7-5.7s.5-3.9 1.6-5.6c1.1-1.6 2.5-2.9 4.4-3.8s3.8-1.4 6-1.4c3.6 0 6.5.7 8.6 2 2.1 1.3 3.2 3.1 3.2 5.3 0 1.1-.3 1.9-.9 2.6-.6.7-1.6 1-2.9 1-.6 0-1.2-.1-1.8-.2l-1.1-8.8c-1.2-.6-2.9-.9-5.2-.9-2.4 0-4.3.7-5.9 2.1-1.5 1.4-2.3 3.1-2.3 5.2 0 1.8.5 3.3 1.6 4.4 1 1.2 2.7 2.2 4.8 3.1l6.2 2.6c3.2 1.4 5.5 3.1 7 5.1 1.4 2 2.2 4.3 2.2 7 0 3.3-1.3 5.9-3.8 7.8s-5.9 2.9-10.1 2.9c-3 .2-5.3-.2-7.2-.9zM114.9 142.2c.2.7.7 1.2 1.3 1.6.6.3 1.6.5 2.9.6v.7l-9 2.4-.2-3.8c-2.6 2.5-5.5 3.8-8.6 3.8-2 0-3.9-.5-5.6-1.5-1.7-1-3-2.5-3.9-4.4-1-1.9-1.4-4.2-1.4-6.8 0-2.8.6-5.2 1.8-7.3 1.2-2.1 2.8-3.7 4.7-4.8 2-1.1 4.1-1.7 6.5-1.7 2.6 0 4.7.4 6.4 1.3v-14.8l-4.4-1.8v-.6l9.1-.5v34.8c.1 1.2.2 2.1.4 2.8zm-17.3-.5c1.6 2.1 3.8 3.2 6.4 3.2 1.1 0 2.2-.1 3-.4.9-.3 1.8-.8 2.7-1.5v-13.3c0-2.6-.6-4.5-1.8-5.8-1.2-1.3-2.7-1.9-4.6-1.9-2.5 0-4.5 1-6 2.9S95 129.5 95 133c.2 3.6 1 6.5 2.6 8.7zm28.1-8.8c0 3.8.9 6.8 2.7 9 1.8 2.2 4.3 3.3 7.5 3.3 2.4 0 4.7-.5 6.8-1.6l.3.6c-1.3.9-2.8 1.7-4.4 2.3-1.6.6-3.4.9-5.2.9-2.4 0-4.5-.5-6.3-1.6-1.9-1-3.3-2.5-4.4-4.5-1.1-2-1.6-4.2-1.6-6.9 0-2.6.5-4.9 1.6-7s2.5-3.7 4.3-4.8c1.8-1.1 3.8-1.7 6.1-1.7 3.3 0 5.9.8 7.7 2.5 1.8 1.6 2.7 3.9 2.7 6.6v1.5h-17.8v1.4zm13-4.3c0-2.1-.5-3.8-1.5-5-1-1.2-2.4-1.8-4.1-1.8-2 0-3.7.7-4.9 2.2-1.2 1.5-2 3.6-2.3 6.5h12.9v-1.9zm15.6 18.4v-.7c1.3 0 2.3-.2 3-.6.7-.3 1.1-.8 1.3-1.5.2-.6.3-1.6.3-2.8v-33.9l-4.4-1.8v-.6l9.2-.5v36.8c0 1.3.1 2.2.3 2.8.2.6.6 1.1 1.2 1.5.7.3 1.6.5 3 .6v.7h-13.9zm27.5-.3c-1.2.5-2.5.8-3.8.8-2.1 0-3.8-.6-5.1-1.7-1.3-1.1-2-2.6-2-4.3 0-2 .8-3.6 2.3-4.8 1.5-1.3 3.9-2.2 7.1-2.9l4.9-1.1v-5.6c0-1.6-.4-2.9-1.3-3.8-.9-.9-2.2-1.4-3.8-1.4-1.3 0-2.5.3-3.6.8l.3 5.5c-.6.9-1.4 1.3-2.4 1.3-.7 0-1.3-.2-1.7-.7-.4-.4-.6-1-.6-1.8s.2-1.5.5-2.2c.3-.6.9-1.3 1.7-1.9 1.6-1.3 3.6-1.9 6-1.9 3.1 0 5.5.7 7.2 2.2s2.5 3.5 2.5 6.1v13.2c0 .9.2 1.6.5 2.2s.9.8 1.6.8c.6 0 1.2-.2 2-.5v.5c-.8.7-1.6 1.1-2.3 1.5-.8.3-1.7.5-2.7.5-2.2 0-3.5-1-3.8-3.1-1.1 1-2.3 1.8-3.5 2.3zm.3-12.5c-2.4.6-4.1 1.5-5.2 2.6s-1.6 2.5-1.6 4.2c0 1.4.4 2.5 1.2 3.3s2 1.2 3.5 1.2c1.8 0 3.5-.6 5.1-1.8v-10.2l-3 .7zM67.3 159.7l17.1 24.5 12.3-24.5h10.1v.8c-1.5.1-2.7.3-3.4.6-.7.3-1.1.8-1.3 1.4-.2.6-.3 1.6-.3 3v28.3c0 1.3.1 2.4.3 3 .2.7.7 1.2 1.4 1.6.7.4 1.8.6 3.3.7v.8H91.4v-.8c1.5-.1 2.6-.3 3.3-.7.7-.4 1.1-.9 1.3-1.6.2-.7.3-1.7.3-3.1v-31.5L82 190.7l-15.3-22.4v22.3c0 2.3.2 4 .5 5.2.4 1.2 1 2 1.8 2.5s2 .8 3.6.9v.7H60.2v-.7c1.4-.1 2.5-.4 3.3-.9.8-.5 1.3-1.3 1.7-2.5.4-1.2.5-2.9.5-5.2V167l-5.1-7.4h6.7zm50.6 38.1c-3.1-1.8-5.5-4.3-7.2-7.5s-2.6-6.7-2.6-10.7c0-4.3.9-8 2.8-11.1 1.8-3.1 4.2-5.4 7.2-7 2.9-1.5 6.1-2.3 9.4-2.3 3.9 0 7.5.9 10.6 2.7 3.1 1.8 5.5 4.3 7.2 7.4 1.7 3.2 2.6 6.7 2.6 10.6 0 4.3-.9 8-2.7 11.1-1.8 3.1-4.2 5.4-7.1 7-2.9 1.6-6 2.3-9.3 2.3-4.2.2-7.8-.7-10.9-2.5zm22.4-3.3c2.2-2.5 3.2-5.9 3.2-10 0-3.8-.9-7.5-2.6-11-1.7-3.6-4-6.4-7-8.7-2.9-2.2-6.1-3.3-9.6-3.3-3.8 0-6.8 1.3-9 3.8-2.2 2.6-3.3 5.9-3.3 10 0 3.8.9 7.5 2.6 11 1.7 3.5 4.1 6.4 7 8.6 2.9 2.2 6.1 3.3 9.6 3.3 4 .1 6.9-1.2 9.1-3.7zm12.1 4c.7-.4 1.1-.9 1.3-1.6.2-.7.3-1.7.3-3.1v-28.2c0-1.4-.1-2.4-.3-3-.2-.7-.6-1.1-1.3-1.4-.7-.3-1.8-.5-3.3-.6v-.8h15.2c4.3 0 8.2.7 11.7 2 3.5 1.4 6.3 3.5 8.3 6.5 2.1 3 3.1 6.7 3.1 11.3 0 4.4-1 8.2-3 11.3-2 3.1-4.7 5.4-8.1 6.9-3.4 1.5-7.2 2.3-11.5 2.3h-15.7v-.8c1.6-.2 2.7-.4 3.3-.8zm8.1-.7c.8.8 2.2 1.1 4.3 1.1 5.5 0 9.7-1.6 12.6-4.8 2.9-3.2 4.4-7.9 4.4-14.2 0-6.3-1.6-11.1-4.7-14.4-3.1-3.3-7.5-4.9-13.2-4.9h-4.6v33.1c.1 2.1.5 3.4 1.2 4.1zm59 2.2h-30.6v-.8c1.5-.1 2.6-.3 3.3-.7s1.1-.9 1.3-1.6c.2-.7.3-1.7.3-3.1v-28.2c0-1.4-.1-2.4-.3-3-.2-.7-.6-1.1-1.3-1.4-.7-.3-1.8-.5-3.3-.6v-.8h30l1.3 10.1h-.8c-1.1-3.2-2.4-5.5-4.1-6.9-1.7-1.4-4-2.2-7-2.2h-9.2v17.9h5.5c1.7 0 3-.2 4-.5s1.7-.8 2.2-1.5c.5-.7.9-1.7 1.1-2.9l.2-1.3h.7v13.4h-.7l-.3-1.4c-.3-1.3-.7-2.3-1.1-3-.5-.7-1.2-1.1-2.1-1.4-.9-.3-2.2-.4-3.9-.4h-5.6v14.2c0 1.9.3 3.2.9 3.9s1.9 1.1 3.7 1.1h4.3c3.3 0 6-.7 8.1-2.1 2.1-1.4 3.8-3.6 5.2-6.7h.9l-2.7 9.9z"></path></symbol></defs>
                <use xlink:href="#icon-ifm-logo"></use>
            </svg>