<?xml version="1.0" encoding="UTF-8"?><svg id="Calque_1" xmlns="http://www.w3.org/2000/svg" width="601" height="601" viewBox="0 0 601 601"><defs><style>.cls-1{fill:#fff;}</style></defs><g id="Page-1"><g id="DEFI_LOGO"><g id="Oval"><path class="cls-1" d="M300.5,601c-80.27,0-155.73-31.26-212.49-88.01C31.26,456.23,0,380.77,0,300.5S31.26,144.77,88.01,88.01C144.77,31.26,220.23,0,300.5,0s155.73,31.26,212.49,88.01c56.76,56.76,88.01,132.22,88.01,212.49s-31.26,155.73-88.01,212.49-132.22,88.01-212.49,88.01Zm0-576c-73.59,0-142.77,28.66-194.81,80.69C53.66,157.73,25,226.91,25,300.5s28.66,142.77,80.69,194.81c52.04,52.04,121.22,80.69,194.81,80.69s142.77-28.66,194.81-80.69,80.69-121.22,80.69-194.81-28.66-142.77-80.69-194.81c-52.04-52.03-121.22-80.69-194.81-80.69Z"/></g><g id="Shape"><path class="cls-1" d="M144.18,330.5h-46.68v-1.9h12.7c.64,0,.95,0,.95-.63v-100.94c0-.32-.32-.63-.95-.63h-12.7v-1.9h46.68c26.04,0,47.32,23.73,47.32,52.84,.32,29.43-20.96,53.16-47.32,53.16m18.17-97.63c-4.8-4.11-11.51-5.37-18.22-5.37h-15.67c-.64,0-.96,0-.96,.63v100.74c0,.32,.32,.63,.96,.63h15.67c6.71,0,13.43-1.26,18.22-5.37,7.99-6.95,12.15-17.37,12.15-45.47,0-24.63-4.16-38.84-12.15-45.79"/></g><g id="Path"><path class="cls-1" d="M309.38,330.95h-81.68v-1.9h12.66c.63,0,.95,0,.95-.63v-100.94c0-.32-.32-.63-.95-.63h-12.66v-1.9h74.4c.32,0,.32,.32,.32,.32v27.53h-1.58c0-13.92-6.97-25.95-25.01-25.95h-17.1c-.63,0-.95,0-.95,.63v48.1h6.33c11.71,0,18.05-6.64,18.05-17.09h1.58v35.76h-1.9c0-10.13-6.33-17.09-18.05-17.09h-6.33v50.94c0,.32,.32,.63,.95,.63h17.41c23.75,0,32.29-13.61,32.29-29.11h1.58v30.38c0,.63,0,.95-.32,.95"/></g><g id="Path-2"><path class="cls-1" d="M424.13,253.11c0-13.92-7.53-25.95-25.08-25.95h-16.31c-.63,0-.94,0-.94,.63v48.1h5.33c11.6,0,18.19-6.64,18.19-17.09h1.57v35.76h-1.57c0-10.13-6.9-17.09-18.19-17.09h-5.64v50.94c0,.32,.31,.63,.94,.63h12.54v1.9h-43.27v-1.9h12.86c.31,0,.63,0,.63-.63v-100.94c0-.32-.31-.63-.63-.63h-12.86v-1.9h73.69c.31,0,.31,.32,.31,.32v27.53h-1.57v.32h0Z"/></g><g id="Path-3"><path class="cls-1" d="M458.7,330.95v-1.9h12.75c.32,0,.96,0,.96-.63v-100.94c0-.32-.32-.63-.96-.63h-12.75v-1.9h44v1.9h-12.75c-.64,0-.96,0-.96,.63v100.94c0,.32,.32,.63,.96,.63h12.75v1.9h-44Z"/></g><g id="Path-4"><polygon class="cls-1" points="188 361.5 188 375.3 196.2 375.3 196.2 377 185.9 377 185.9 361.5 188 361.5"/></g><g id="Shape-2"><path class="cls-1" d="M205,361.5l6.1,15.5h-2.3l-1.7-4.7h-6.6l-1.7,4.7h-2.1l6.1-15.5h2.2Zm1.5,9.1l-2.6-7.2h0l-2.6,7.2h5.2Z"/></g><g id="Path-5"><polygon class="cls-1" points="222.6 361.5 227.6 374.5 232.5 361.5 235.3 361.5 235.3 377 233.3 377 233.3 364.1 233.3 364.1 228.4 377 226.7 377 221.8 364.1 221.8 364.1 221.8 377 219.8 377 219.8 361.5 222.6 361.5"/></g><g id="Shape-3"><path class="cls-1" d="M238.9,366.2c.3-1,.8-1.8,1.4-2.6,.6-.8,1.4-1.4,2.3-1.8,.9-.4,2-.7,3.2-.7s2.3,.2,3.2,.7,1.7,1,2.3,1.8,1.1,1.6,1.4,2.6,.5,2,.5,3.1-.2,2.1-.5,3.1-.8,1.8-1.4,2.6c-.6,.8-1.4,1.4-2.3,1.8-.9,.4-2,.7-3.2,.7s-2.3-.2-3.2-.7c-.9-.4-1.7-1-2.3-1.8s-1.1-1.6-1.4-2.6c-.3-1-.5-2-.5-3.1s.2-2.1,.5-3.1m1.9,5.4c.2,.8,.5,1.4,1,2.1,.4,.6,1,1.1,1.7,1.5s1.5,.6,2.4,.6,1.8-.2,2.4-.6c.7-.4,1.2-.9,1.7-1.5,.4-.6,.8-1.3,1-2.1,.2-.8,.3-1.5,.3-2.3s-.1-1.6-.3-2.3c-.2-.8-.5-1.4-1-2.1-.4-.6-1-1.1-1.7-1.5s-1.5-.6-2.4-.6-1.8,.2-2.4,.6c-.7,.4-1.2,.9-1.7,1.5-.4,.6-.8,1.3-1,2.1s-.3,1.5-.3,2.3c0,.7,.1,1.5,.3,2.3"/></g><g id="Shape-4"><path class="cls-1" d="M261.7,361.5c2.4,0,4.2,.6,5.5,1.8,1.3,1.2,1.9,3.1,1.9,5.6,0,1.3-.1,2.5-.4,3.5s-.7,1.9-1.4,2.5c-.6,.7-1.4,1.2-2.3,1.6s-2.1,.5-3.3,.5h-5.3v-15.5h5.3Zm.2,13.8c.2,0,.5,0,.9-.1,.4,0,.7-.1,1.1-.3,.4-.1,.8-.3,1.2-.6,.4-.3,.7-.6,1-1.1s.6-1,.7-1.7c.2-.7,.3-1.5,.3-2.4s-.1-1.8-.3-2.5c-.2-.7-.5-1.4-.9-1.9s-.9-.9-1.6-1.2-1.5-.4-2.4-.4h-3.5v12.1h3.5v.1h0Z"/></g><g id="Path-6"><polygon class="cls-1" points="283 361.5 283 363.2 274.3 363.2 274.3 368.2 282.4 368.2 282.4 369.9 274.3 369.9 274.3 375.3 283 375.3 283 377 272.2 377 272.2 361.5 283 361.5"/></g><g id="Shape-5"><path class="cls-1" d="M298,361.5c2.4,0,4.2,.6,5.5,1.8,1.3,1.2,1.9,3.1,1.9,5.6,0,1.3-.1,2.5-.4,3.5s-.7,1.9-1.4,2.5c-.6,.7-1.4,1.2-2.3,1.6s-2.1,.5-3.4,.5h-5.3v-15.5h5.4Zm.2,13.8c.2,0,.5,0,.9-.1,.4,0,.7-.1,1.1-.3,.4-.1,.8-.3,1.2-.6,.4-.3,.7-.6,1-1.1s.5-1,.7-1.7,.3-1.5,.3-2.4-.1-1.8-.3-2.5c-.2-.7-.5-1.4-.9-1.9s-.9-.9-1.6-1.2c-.7-.3-1.5-.4-2.4-.4h-3.5v12.1h3.5v.1h0Z"/></g><g id="Path-7"><polygon class="cls-1" points="319.3 361.5 319.3 363.2 310.6 363.2 310.6 368.2 318.7 368.2 318.7 369.9 310.6 369.9 310.6 375.3 319.3 375.3 319.3 377 308.5 377 308.5 361.5 319.3 361.5"/></g><g id="Path-8"><polygon class="cls-1" points="339.2 361.5 339.2 363.2 331.1 363.2 331.1 368.2 338.2 368.2 338.2 369.9 331.1 369.9 331.1 377 329 377 329 361.5 339.2 361.5"/></g><g id="Shape-6"><path class="cls-1" d="M349.3,361.5c1.5,0,2.6,.4,3.5,1.1,.8,.7,1.3,1.7,1.3,3,0,.9-.2,1.8-.6,2.5s-1.1,1.2-2.1,1.5h0c.5,.1,.8,.2,1.1,.4s.5,.4,.7,.7c.2,.3,.3,.6,.4,.9,.1,.4,.1,.7,.2,1.1,0,.4,.1,.8,.1,1.2s.1,.8,.1,1.2c.1,.4,.1,.7,.2,1.1,.1,.3,.3,.6,.5,.9h-2.3c-.1-.2-.2-.4-.3-.7-.1-.3-.1-.6-.1-.9v-1.1c0-.4-.1-.8-.1-1.2-.1-.4-.1-.7-.2-1.1-.1-.3-.2-.6-.4-.9-.2-.3-.4-.5-.7-.6-.3-.1-.7-.2-1.2-.2h-5.1v6.6h-2.1v-15.5h7.1Zm.5,7c.4-.1,.8-.2,1.1-.4,.3-.2,.6-.5,.8-.8,.2-.4,.3-.8,.3-1.4,0-.8-.2-1.4-.7-1.9-.4-.5-1.1-.7-2.1-.7h-5.1v5.4h4.3c.5-.1,.9-.1,1.4-.2"/></g><g id="Shape-7"><path class="cls-1" d="M364,361.5l6.1,15.5h-2.3l-1.7-4.7h-6.6l-1.7,4.7h-2.1l6.1-15.5h2.2Zm1.4,9.1l-2.6-7.2h0l-2.6,7.2h5.2Z"/></g><g id="Path-9"><polygon class="cls-1" points="374.3 361.5 382.5 374.1 382.5 374.1 382.5 361.5 384.5 361.5 384.5 377 382.2 377 374.1 364.5 374.1 364.5 374.1 377 372.1 377 372.1 361.5 374.3 361.5"/></g><g id="Path-10"><path class="cls-1" d="M397.8,363.7c-.8-.5-1.7-.8-2.8-.8-.9,0-1.7,.2-2.4,.5-.7,.3-1.2,.8-1.6,1.4s-.7,1.3-.9,2c-.2,.8-.3,1.5-.3,2.4s.1,1.7,.3,2.5c.2,.8,.5,1.5,.9,2.1s1,1.1,1.6,1.4c.7,.3,1.5,.5,2.4,.5,.7,0,1.3-.1,1.8-.3,.5-.2,1-.5,1.4-.9s.7-.9,.9-1.4c.2-.6,.3-1.1,.4-1.8h2.1c-.2,2-.9,3.5-2,4.6s-2.7,1.6-4.7,1.6c-1.2,0-2.3-.2-3.2-.6-.9-.4-1.7-1-2.2-1.7-.6-.7-1-1.6-1.3-2.6s-.4-2-.4-3.2c0-1.1,.2-2.2,.5-3.2s.8-1.9,1.4-2.6,1.4-1.3,2.3-1.8c.9-.4,2-.6,3.2-.6,.8,0,1.6,.1,2.3,.3s1.4,.5,1.9,1c.6,.4,1,.9,1.4,1.6,.4,.6,.6,1.4,.7,2.2h-2.1c-.3-1.2-.8-2.1-1.6-2.6"/></g><g id="Path-11"><polygon class="cls-1" points="415.4 361.5 415.4 363.2 406.7 363.2 406.7 368.2 414.8 368.2 414.8 369.9 406.7 369.9 406.7 375.3 415.4 375.3 415.4 377 404.6 377 404.6 361.5 415.4 361.5"/></g></g></g></svg>