<svg xmlns:xlink="http://www.w3.org/1999/xlink" data-v-0c620dd9="" id="stationf-logo" height="44" viewBox="0 0 247 44" fill="none" xmlns="http://www.w3.org/2000/svg" title="Logo of Station F" width="247" ><path fill="#000000" d="M14.2 43.5999C21.34 43.5999 27.4 38.0199 27.4 30.8199C27.4 24.9399 24.58 20.8599 19.12 19.0599C17.68
		18.5799 14.38 17.3799 13.12 16.8999C11.2 16.1799 9.33998 15.0399 9.33998 12.5199C9.33998 9.7599 11.32
		8.5599 13 8.4999V0.399902C6.39998 0.399902 0.579976 5.3199 0.579976 12.6399C0.579976 17.4999 3.03998
		22.4799 9.27998 24.6399L14.26 26.4999C16.78 27.4599 18.4 28.8999 18.4 31.1199C18.4 33.8799 16.66 35.4399
		14.2 35.4999V43.5999ZM13 35.4999C10.6 35.4399 8.79998 33.2799 8.79998 30.9999L0.0999756 31.4199C0.339976
		38.5599 5.85998 43.5999 13 43.5999V35.4999ZM26.5 12.3999C26.2 5.1999 20.92 0.399902 14.2
		0.399902V8.4999C16.24 8.5599 17.8 10.3599 17.8 12.9999L26.5 12.3999Z"></path> <path fill="#000000" d="M48.0245 42.9999V10.2999H39.3245V42.9999H48.0245ZM56.9045 9.09991V0.999902H30.4445V9.09991H56.9045Z"></path> <path fill="#000000" d="M86.7208 42.9999L76.9408 0.999902H66.9808L65.0608 9.3999C67.5808 9.3999 70.7008 10.8999 72.3808
		18.3399L77.9608 42.9999H86.7208ZM75.5608 37.8399L74.0008 30.8199H68.7208L71.4208 19.1799C70.2208 14.2599
		68.4208 10.5399 64.7608 10.5399L57.2008 42.9999H65.9608L67.1608 37.8399H75.5608Z"></path> <path fill="#000000" d="M104.626 42.9999V10.2999H95.9261V42.9999H104.626ZM113.506 9.09991V0.999902H87.0461V9.09991H113.506Z"></path> <path fill="#000000" d="M128.205 42.9999V0.999902H119.505V42.9999H128.205Z"></path> <path fill="#000000" d="M163.014 12.9999C163.014 5.9199 157.194 0.399902 150.114 0.399902V8.4999C152.574 8.4999 154.314
		10.5399 154.314 12.9999V30.9999C154.314 33.4599 152.574 35.4999 150.114 35.4999V43.5999C157.194 43.5999
		163.014 38.0799 163.014 30.9999V12.9999ZM148.914 35.4999C146.454 35.4999 144.714 33.4599
		144.714 30.9999V12.9999C144.714 10.5399 146.454 8.4999 148.914 8.4999V0.399902C141.834 0.399902
		136.014 5.9199 136.014 12.9999V30.9999C136.014 38.0799 141.834 43.5999 148.914 43.5999V35.4999Z"></path> <path fill="#000000" d="M197.833 42.9999V34.5999C195.733 34.5999 193.093 33.8199 191.233 28.8999L180.733
		0.999902H170.833V9.3999C172.933 9.3999 175.573 10.1199 177.433 15.0999L187.933 42.9999H197.833ZM179.533
		42.9999V24.0999L176.533 16.1199C175.033 12.1599 173.413 10.5999 170.833 10.5999V42.9999H179.533ZM197.833
		0.999902H189.133V19.8999L192.133 27.7599C193.633 31.7199 195.253 33.3999 197.833 33.3999V0.999902Z"></path> <path fill="#000000" d="M228.752 42.9999V0.999902H220.052V42.9999H228.752ZM246.752
		9.09991V0.999902H229.952V9.09991H246.752ZM240.812 25.2999V17.1999H229.952V25.2999H240.812Z"></path></svg>